<svg version="1.1" id="Layer_1" xmlns="http://www.w3.org/2000/svg" xmlns:xlink="http://www.w3.org/1999/xlink" x="0px" y="0px"
	 width="100%" viewBox="0 0 1920 1064" enable-background="new 0 0 1920 1064" xml:space="preserve">
<path fill="#FFFFFE" opacity="1.000000" stroke="none" 
	d="
M1405.000000,1065.000000 
	C936.666748,1065.000000 468.833496,1065.000000 1.000188,1065.000000 
	C1.000126,710.333496 1.000126,355.666962 1.000063,1.000331 
	C640.999756,1.000221 1280.999512,1.000221 1920.999512,1.000110 
	C1920.999634,355.666351 1920.999634,710.332703 1920.999756,1064.999512 
	C1749.166626,1065.000000 1577.333374,1065.000000 1405.000000,1065.000000 
M670.105713,193.861404 
	C662.942932,194.662216 655.744019,195.230881 648.629211,196.339264 
	C643.201538,197.184830 637.918518,198.931259 632.501831,199.881485 
	C626.552368,200.925186 620.517090,201.473663 614.539734,202.373856 
	C613.986694,202.457153 613.581421,203.521881 612.435852,204.280487 
	C611.758789,204.389130 611.081726,204.497772 609.564270,204.267410 
	C604.009521,204.544479 598.395081,204.420898 592.920715,205.237106 
	C589.167419,205.796707 585.608948,207.663498 581.130554,209.006256 
	C580.134521,209.082764 579.115234,209.048813 578.146118,209.253052 
	C569.390930,211.098145 560.700439,213.328018 551.880066,214.763702 
	C542.930542,216.220398 533.844971,216.822540 524.839294,217.959564 
	C519.641541,218.615814 514.463135,219.478729 509.312775,220.444580 
	C499.543213,222.276672 489.843140,224.519699 480.033173,226.083694 
	C471.258209,227.482666 462.374115,228.196564 453.538574,229.216553 
	C453.043152,229.273743 452.544769,229.335083 452.059448,229.445724 
	C444.131409,231.253189 436.261261,233.384521 428.264618,234.803436 
	C418.102966,236.606506 407.824219,237.738388 397.623962,239.338196 
	C389.050354,240.682846 380.530884,242.370743 371.960938,243.740829 
	C365.817627,244.722946 359.623138,245.380600 353.465668,246.280075 
	C349.569611,246.849213 345.704102,247.624283 341.817047,248.258759 
	C332.594513,249.764099 323.377502,251.308304 314.138428,252.705551 
	C307.810791,253.662491 301.402222,254.139999 295.114929,255.295013 
	C286.005310,256.968506 277.019409,259.332520 267.895050,260.904449 
	C256.755829,262.823395 245.506912,264.097229 234.344025,265.890228 
	C223.063385,267.702148 211.843307,269.888367 200.572403,271.764496 
	C186.198746,274.157104 171.806717,276.441742 157.411072,278.699219 
	C147.061371,280.322235 136.703217,281.899780 126.326950,283.340149 
	C122.710350,283.842163 118.973106,283.555237 115.386566,284.178650 
	C104.955482,285.991730 94.572227,288.080322 84.173897,290.079987 
	C83.883652,290.135834 83.635071,290.408264 83.303345,290.620422 
	C83.093056,291.985504 82.876846,293.389038 82.618645,295.065125 
	C72.190620,295.065125 62.044834,295.040924 51.899216,295.071838 
	C41.514534,295.103485 33.149300,300.189758 26.307461,307.107269 
	C16.016581,317.511993 11.373727,330.716980 11.806498,345.290558 
	C12.089826,354.831635 13.440391,364.348999 14.488307,373.857697 
	C16.441124,391.577301 18.567160,409.277863 20.514397,426.998077 
	C20.950203,430.963989 20.663414,435.016663 21.199434,438.962830 
	C22.566414,449.026398 24.422586,459.025787 25.684599,469.100769 
	C26.996983,479.577881 27.722479,490.127197 28.922510,500.620026 
	C30.380436,513.367798 32.179298,526.076660 33.621796,538.826050 
	C35.071896,551.642578 36.291397,564.485596 37.552776,577.322815 
	C37.861965,580.469421 37.738327,583.666077 38.161903,586.792542 
	C39.594303,597.365784 41.331791,607.898926 42.668304,618.483398 
	C43.887424,628.138123 44.655464,637.848938 45.768467,647.518188 
	C47.350368,661.260986 49.068890,674.988037 50.723610,688.722473 
	C51.766293,697.376831 52.831890,706.028687 53.827232,714.688538 
	C54.863880,723.707886 55.899693,732.728394 56.806637,741.761292 
	C57.963070,753.279053 59.016388,764.807373 60.061157,776.335938 
	C60.571472,781.966797 60.760921,787.633118 61.447998,793.240295 
	C62.906372,805.142029 64.714066,817.001160 66.153648,828.904968 
	C67.362495,838.900879 68.062943,848.959534 69.336990,858.945923 
	C70.621864,869.017090 72.613640,879.001099 73.789864,889.082336 
	C75.170616,900.916504 76.021210,912.812927 77.071243,924.685059 
	C77.539970,929.984741 77.725647,935.317871 78.405411,940.588684 
	C79.854904,951.827881 81.726982,963.014099 83.083740,974.263245 
	C84.546310,986.389771 85.552399,998.570740 86.920074,1010.709656 
	C87.169121,1012.920044 87.851311,1015.235962 88.929977,1017.170715 
	C92.833878,1024.172729 96.991951,1031.033081 101.206383,1038.577271 
	C102.047783,1039.127075 102.889175,1039.676758 104.262955,1040.499268 
	C104.844398,1040.635132 105.425850,1040.770874 106.164368,1041.596069 
	C110.805626,1044.052734 115.275734,1046.959839 120.146965,1048.811401 
	C123.516930,1050.092407 127.507881,1050.594849 131.101318,1050.237671 
	C136.895477,1049.661865 142.576157,1048.010742 148.332108,1046.964233 
	C153.464310,1046.031006 158.639496,1045.334961 163.776764,1044.426880 
	C164.248596,1044.343506 164.582565,1043.480225 165.764023,1042.879639 
	C174.940659,1041.288452 184.101761,1039.599731 193.298264,1038.133057 
	C202.698593,1036.633789 212.172119,1035.570190 221.542557,1033.913818 
	C230.662964,1032.301758 239.614670,1029.296509 248.780884,1028.480347 
	C264.355835,1027.093384 279.614441,1024.299194 294.897308,1021.216064 
	C305.032745,1019.171265 315.383636,1018.191223 325.640839,1016.754150 
	C332.834656,1015.746338 340.083740,1015.042786 347.216095,1013.710571 
	C355.332367,1012.194458 363.281036,1009.727905 371.421631,1008.409668 
	C380.849731,1006.882935 390.413635,1006.208496 399.906464,1005.063293 
	C405.755768,1004.357544 411.635803,1003.732666 417.406311,1002.588745 
	C425.365906,1001.010925 433.173157,998.623596 441.157959,997.223633 
	C452.614807,995.214905 464.192627,993.907227 475.682220,992.071289 
	C487.277802,990.218384 498.794922,987.856201 510.409760,986.147827 
	C519.878052,984.755127 529.439819,983.997986 539.834473,983.116699 
	C547.063354,982.340210 554.334778,981.826050 561.500610,980.661377 
	C564.465454,980.179565 567.203857,978.304077 570.880371,977.003540 
	C576.623169,975.759521 582.323303,974.243042 588.118835,973.336060 
	C596.577942,972.012085 605.109558,971.155762 613.602539,970.041138 
	C617.967773,969.468201 622.313477,968.747498 626.673767,968.134644 
	C628.320007,967.903198 630.018127,967.948364 631.631470,967.591431 
	C639.549561,965.839722 647.379272,963.570190 655.369629,962.294617 
	C664.652283,960.812683 674.079041,960.252930 683.424805,959.138550 
	C688.938477,958.481079 694.460571,957.744263 699.900085,956.651062 
	C708.179321,954.987183 716.333374,952.659302 724.643860,951.201965 
	C736.110168,949.191284 747.691101,947.844543 759.188538,945.998901 
	C770.928284,944.114319 782.604980,941.835327 794.348694,939.978333 
	C805.865662,938.157227 817.432007,936.647766 828.977173,935.005249 
	C834.349487,934.240967 839.769836,933.721802 845.085205,932.670776 
	C853.225952,931.061218 861.227539,928.004211 869.408203,927.496582 
	C886.056335,926.463318 902.220093,922.908813 918.546021,920.091309 
	C928.882629,918.307556 939.307861,917.039368 949.689819,915.515991 
	C960.406189,913.943542 971.118835,912.345215 981.831116,910.745117 
	C982.477844,910.648499 983.102295,910.412048 983.745300,910.280334 
	C992.525635,908.481567 1001.270264,906.475281 1010.098145,904.951233 
	C1020.755798,903.111206 1031.499268,901.774231 1042.177979,900.049011 
	C1053.779297,898.174744 1065.346069,896.087891 1076.933105,894.124451 
	C1090.333984,891.853638 1103.725098,889.519958 1117.149048,887.393799 
	C1128.810303,885.546936 1140.502563,883.887451 1152.200073,882.282837 
	C1155.811279,881.787537 1159.547852,882.086914 1163.116821,881.426331 
	C1171.739258,879.830383 1180.268799,877.733704 1188.889771,876.128784 
	C1194.854614,875.018188 1200.912964,874.414551 1206.922607,873.538330 
	C1210.655762,872.993958 1214.375122,872.355469 1218.102783,871.773132 
	C1227.969482,870.231995 1237.831787,868.660950 1247.706787,867.174988 
	C1254.030151,866.223511 1260.420044,865.650085 1266.695557,864.460876 
	C1275.161499,862.856506 1283.489990,860.492126 1291.979126,859.053833 
	C1303.791138,857.052612 1315.695801,855.596680 1327.563843,853.928406 
	C1332.774780,853.195923 1338.010864,852.625854 1343.204102,851.787537 
	C1352.231079,850.330383 1361.216797,848.612549 1370.251587,847.209595 
	C1378.520752,845.925537 1386.873169,845.150574 1395.114990,843.724426 
	C1406.863770,841.691406 1418.528442,839.177185 1430.261719,837.049011 
	C1436.725098,835.876648 1443.278687,835.206604 1449.750854,834.076782 
	C1464.218018,831.550964 1478.570312,828.025024 1493.136108,826.497925 
	C1508.852661,824.850281 1524.333984,822.320435 1539.802856,819.247253 
	C1550.084106,817.204712 1560.567139,816.177612 1570.959839,814.696716 
	C1577.822266,813.718933 1584.731079,812.987793 1591.535522,811.703186 
	C1599.837036,810.135925 1607.997925,807.803162 1616.315308,806.347290 
	C1627.589722,804.373779 1638.974243,803.037842 1650.275757,801.207336 
	C1661.720459,799.353760 1673.103149,797.117065 1684.547363,795.260559 
	C1694.087646,793.712891 1703.667236,792.392029 1713.250122,791.127991 
	C1718.519043,790.432983 1723.894409,790.412903 1729.109131,789.467285 
	C1737.763306,787.897827 1746.276123,785.534546 1754.940796,784.041809 
	C1765.921265,782.150269 1776.993896,780.794495 1788.598389,779.653625 
	C1793.549072,779.405640 1798.566895,779.568542 1803.428589,778.774902 
	C1807.073608,778.179871 1810.517700,776.354065 1814.912720,775.029724 
	C1818.755249,774.310608 1822.584961,773.511841 1826.443604,772.892700 
	C1831.146973,772.138000 1835.893677,771.645020 1840.587769,770.841370 
	C1849.124756,769.379700 1857.609375,766.753479 1866.167358,766.522339 
	C1874.163940,766.306335 1880.676270,763.162598 1886.577759,759.077942 
	C1900.177368,749.664856 1906.366089,735.365173 1906.439575,719.517700 
	C1906.505493,705.294922 1903.710938,691.055908 1902.130737,676.829407 
	C1901.184448,668.308655 1900.148193,659.797852 1899.151001,651.282776 
	C1898.211548,643.260681 1897.165283,635.249329 1896.354736,627.214233 
	C1895.209106,615.857788 1894.325928,604.474792 1893.161255,593.120483 
	C1892.305176,584.775330 1891.179321,576.457825 1890.170410,568.128418 
	C1888.449585,553.919312 1886.736450,539.709290 1884.999268,525.502197 
	C1884.081909,518.000000 1883.048706,510.511322 1882.198364,503.001740 
	C1881.138550,493.642365 1880.200317,484.269012 1879.233887,474.899231 
	C1878.216797,465.039093 1877.347046,455.162170 1876.198120,445.317657 
	C1874.674316,432.263245 1872.921143,419.235809 1871.307007,406.191772 
	C1870.175903,397.049316 1869.105591,387.899353 1868.020630,378.751251 
	C1867.069946,370.736450 1866.019897,362.731140 1865.223877,354.700836 
	C1864.065674,343.019104 1863.076660,331.320374 1862.053833,319.625549 
	C1861.546387,313.824280 1861.330566,307.990173 1860.621216,302.215363 
	C1859.141357,290.169037 1857.276978,278.169373 1855.843384,266.118134 
	C1854.620972,255.842087 1853.780518,245.520584 1852.769531,235.219360 
	C1852.736938,234.887802 1852.695679,234.556808 1852.647461,234.227158 
	C1851.107666,223.686493 1849.349854,213.171967 1848.083374,202.598587 
	C1846.687622,190.946701 1845.888184,179.224289 1844.566040,167.562424 
	C1842.806519,152.043045 1840.789429,136.552902 1838.889771,121.049370 
	C1837.990845,113.713310 1837.009399,106.385612 1836.241089,99.035751 
	C1835.157227,88.668526 1834.324585,78.274796 1833.214355,67.910622 
	C1832.498535,61.227890 1831.768677,54.521061 1830.484131,47.934410 
	C1829.709351,43.961643 1828.490234,39.798939 1826.354248,36.429234 
	C1822.591064,30.492022 1818.067871,25.321470 1812.048828,21.005428 
	C1806.661011,17.141968 1801.267944,13.895041 1795.038940,13.905684 
	C1785.534546,13.921922 1776.022217,15.284724 1766.534790,16.281313 
	C1762.326904,16.723310 1758.160156,17.605904 1753.995117,18.395910 
	C1744.075562,20.277418 1734.208008,22.472271 1724.243652,24.066900 
	C1715.641113,25.443569 1706.933838,26.165611 1698.273438,27.182417 
	C1697.780518,27.240280 1697.288086,27.324009 1696.804077,27.433979 
	C1688.727173,29.269531 1680.708496,31.432869 1672.561890,32.872681 
	C1661.593628,34.811222 1650.508057,36.074627 1639.507935,37.846142 
	C1627.758789,39.738258 1616.076782,42.053921 1604.317383,43.873875 
	C1591.644897,45.835133 1578.916260,47.431507 1566.213379,49.196304 
	C1561.324463,49.875504 1556.398071,50.370598 1551.561279,51.319572 
	C1543.109863,52.977821 1534.768799,55.248901 1526.280884,56.657204 
	C1517.339233,58.140789 1508.274902,58.874134 1499.274414,60.016552 
	C1495.078735,60.549095 1490.908447,61.281788 1486.724121,61.905941 
	C1485.410278,62.101913 1484.074707,62.170483 1482.771362,62.415375 
	C1473.007568,64.250000 1463.253052,66.135208 1453.484985,67.946465 
	C1452.021606,68.217819 1450.485962,68.082230 1449.011108,68.311348 
	C1438.990845,69.868164 1429.004883,71.685692 1418.949585,72.959908 
	C1414.714478,73.496582 1410.820923,73.656120 1410.465942,78.166405 
	C1398.425781,79.068954 1386.880371,79.745201 1375.377075,80.856102 
	C1366.049316,81.756905 1356.713013,82.842384 1347.487183,84.455887 
	C1335.630859,86.529434 1323.978638,90.306503 1312.061890,91.368164 
	C1295.652100,92.830109 1279.607300,95.950638 1263.467651,98.838028 
	C1253.127686,100.687820 1242.678467,101.924576 1232.280884,103.453903 
	C1221.739380,105.004410 1211.200684,106.573723 1200.662354,108.145439 
	C1199.847656,108.266945 1199.045410,108.471649 1198.237549,108.639091 
	C1189.630127,110.423317 1181.073730,112.529144 1172.401245,113.903252 
	C1163.457886,115.320274 1154.390869,115.939323 1145.399292,117.076057 
	C1140.550781,117.689011 1135.743896,118.637947 1130.923462,119.464584 
	C1118.849365,121.535065 1106.787964,123.681313 1094.701660,125.677673 
	C1088.714722,126.666565 1082.651611,127.208443 1076.680054,128.273056 
	C1062.219727,130.851089 1047.826538,133.818512 1033.339966,136.231476 
	C1024.737427,137.664352 1015.955505,138.018021 1007.349670,139.436127 
	C993.991455,141.637344 980.739929,144.481796 967.391602,146.749756 
	C961.514282,147.748352 955.450562,147.656647 949.577881,148.673981 
	C941.241333,150.118103 933.044128,152.361191 924.711853,153.836365 
	C915.357178,155.492538 905.909851,156.618286 896.518677,158.076874 
	C886.661560,159.607819 876.829956,161.302795 866.974304,162.843292 
	C860.662598,163.829865 854.315186,164.588623 848.005432,165.586716 
	C835.248230,167.604630 822.507629,169.726974 809.754944,171.773865 
	C808.280029,172.010574 806.733704,171.870850 805.286133,172.197189 
	C797.360291,173.984177 789.503479,176.116425 781.529358,177.640289 
	C772.855286,179.297928 764.087280,180.478256 755.344727,181.760437 
	C743.475220,183.501221 731.590027,185.134949 719.713318,186.826797 
	C714.041443,187.634735 708.371521,188.456604 702.704346,189.297119 
	C692.143494,190.863419 681.585205,192.447998 670.105713,193.861404 
z"/>
<path fill="#FF8C01" opacity="1.000000" stroke="none" 
	d="
M538.960144,982.959106 
	C529.439819,983.997986 519.878052,984.755127 510.409760,986.147827 
	C498.794922,987.856201 487.277802,990.218384 475.682220,992.071289 
	C464.192627,993.907227 452.614807,995.214905 441.157959,997.223633 
	C433.173157,998.623596 425.365906,1001.010925 417.406311,1002.588745 
	C411.635803,1003.732666 405.755768,1004.357544 399.906464,1005.063293 
	C390.413635,1006.208496 380.849731,1006.882935 371.421631,1008.409668 
	C363.281036,1009.727905 355.332367,1012.194458 347.216095,1013.710571 
	C340.083740,1015.042786 332.834656,1015.746338 325.640839,1016.754150 
	C315.383636,1018.191223 305.032745,1019.171265 294.897308,1021.216064 
	C279.614441,1024.299194 264.355835,1027.093384 248.780884,1028.480347 
	C239.614670,1029.296509 230.662964,1032.301758 221.542557,1033.913818 
	C212.172119,1035.570190 202.698593,1036.633789 193.298264,1038.133057 
	C184.101761,1039.599731 174.940659,1041.288452 164.912994,1042.842896 
	C155.303940,1043.767456 146.422150,1044.122314 137.825867,1045.876343 
	C130.573807,1047.355835 123.686348,1048.228516 116.705254,1045.354004 
	C113.134308,1043.883667 109.572968,1042.389893 106.007309,1040.906738 
	C105.425850,1040.770874 104.844398,1040.635132 103.941811,1040.018677 
	C102.765144,1039.007690 101.909615,1038.477295 101.054092,1037.946899 
	C96.991951,1031.033081 92.833878,1024.172729 88.929977,1017.170715 
	C87.851311,1015.235962 87.169121,1012.920044 86.920074,1010.709656 
	C85.552399,998.570740 84.546310,986.389771 83.083740,974.263245 
	C81.726982,963.014099 79.854904,951.827881 78.405411,940.588684 
	C77.725647,935.317871 77.539970,929.984741 77.071243,924.685059 
	C76.021210,912.812927 75.170616,900.916504 73.789864,889.082336 
	C72.613640,879.001099 70.621864,869.017090 69.336990,858.945923 
	C68.062943,848.959534 67.362495,838.900879 66.153648,828.904968 
	C64.714066,817.001160 62.906372,805.142029 61.447998,793.240295 
	C60.760921,787.633118 60.571472,781.966797 60.061157,776.335938 
	C59.016388,764.807373 57.963070,753.279053 56.806637,741.761292 
	C55.899693,732.728394 54.863880,723.707886 53.827232,714.688538 
	C52.831890,706.028687 51.766293,697.376831 50.723610,688.722473 
	C49.068890,674.988037 47.350368,661.260986 45.768467,647.518188 
	C44.655464,637.848938 43.887424,628.138123 42.668304,618.483398 
	C41.331791,607.898926 39.594303,597.365784 38.161903,586.792542 
	C37.738327,583.666077 37.861965,580.469421 37.552776,577.322815 
	C36.291397,564.485596 35.071896,551.642578 33.621796,538.826050 
	C32.179298,526.076660 30.380436,513.367798 28.922510,500.620026 
	C27.722479,490.127197 26.996983,479.577881 25.684599,469.100769 
	C24.422586,459.025787 22.566414,449.026398 21.199434,438.962830 
	C20.663414,435.016663 20.950203,430.963989 20.514397,426.998077 
	C18.567160,409.277863 16.441124,391.577301 14.488307,373.857697 
	C13.440391,364.348999 12.089826,354.831635 11.806498,345.290558 
	C11.373727,330.716980 16.016581,317.511993 26.307461,307.107269 
	C33.149300,300.189758 41.514534,295.103485 51.899216,295.071838 
	C62.044834,295.040924 72.190620,295.065125 82.618645,295.065125 
	C82.876846,293.389038 83.093056,291.985504 83.303345,290.620422 
	C83.635071,290.408264 83.883652,290.135834 84.173897,290.079987 
	C94.572227,288.080322 104.955482,285.991730 115.386566,284.178650 
	C118.973106,283.555237 122.710350,283.842163 126.326950,283.340149 
	C136.703217,281.899780 147.061371,280.322235 157.411072,278.699219 
	C171.806717,276.441742 186.198746,274.157104 200.572403,271.764496 
	C211.843307,269.888367 223.063385,267.702148 234.344025,265.890228 
	C245.506912,264.097229 256.755829,262.823395 267.895050,260.904449 
	C277.019409,259.332520 286.005310,256.968506 295.114929,255.295013 
	C301.402222,254.139999 307.810791,253.662491 314.138428,252.705551 
	C323.377502,251.308304 332.594513,249.764099 341.817047,248.258759 
	C345.704102,247.624283 349.569611,246.849213 353.465668,246.280075 
	C359.623138,245.380600 365.817627,244.722946 371.960938,243.740829 
	C380.530884,242.370743 389.050354,240.682846 397.623962,239.338196 
	C407.824219,237.738388 418.102966,236.606506 428.264618,234.803436 
	C436.261261,233.384521 444.131409,231.253189 452.059448,229.445724 
	C452.544769,229.335083 453.043152,229.273743 453.538574,229.216553 
	C462.374115,228.196564 471.258209,227.482666 480.033173,226.083694 
	C489.843140,224.519699 499.543213,222.276672 509.312775,220.444580 
	C514.463135,219.478729 519.641541,218.615814 524.839294,217.959564 
	C533.844971,216.822540 542.930542,216.220398 551.880066,214.763702 
	C560.700439,213.328018 569.390930,211.098145 578.146118,209.253052 
	C579.115234,209.048813 580.134521,209.082764 582.001343,209.059052 
	C591.192688,208.291153 599.519592,207.525726 607.824829,206.572037 
	C608.747864,206.466049 609.547729,205.287537 610.404663,204.606430 
	C611.081726,204.497772 611.758789,204.389130 613.228271,204.259872 
	C624.504333,202.799438 634.995728,201.411942 645.465454,199.877380 
	C647.662720,199.555328 649.745239,198.467941 651.941895,198.121811 
	C657.733215,197.209259 663.565063,196.554199 669.360107,195.662766 
	C669.984558,195.566711 670.473877,194.592056 671.025879,194.024963 
	C681.585205,192.447998 692.143494,190.863419 702.704346,189.297119 
	C708.371521,188.456604 714.041443,187.634735 719.713318,186.826797 
	C731.590027,185.134949 743.475220,183.501221 755.344727,181.760437 
	C764.087280,180.478256 772.855286,179.297928 781.529358,177.640289 
	C789.503479,176.116425 797.360291,173.984177 805.286133,172.197189 
	C806.733704,171.870850 808.280029,172.010574 809.754944,171.773865 
	C822.507629,169.726974 835.248230,167.604630 848.005432,165.586716 
	C854.315186,164.588623 860.662598,163.829865 866.974304,162.843292 
	C876.829956,161.302795 886.661560,159.607819 896.518677,158.076874 
	C905.909851,156.618286 915.357178,155.492538 924.711853,153.836365 
	C933.044128,152.361191 941.241333,150.118103 949.577881,148.673981 
	C955.450562,147.656647 961.514282,147.748352 967.391602,146.749756 
	C980.739929,144.481796 993.991455,141.637344 1007.349670,139.436127 
	C1015.955505,138.018021 1024.737427,137.664352 1033.339966,136.231476 
	C1047.826538,133.818512 1062.219727,130.851089 1076.680054,128.273056 
	C1082.651611,127.208443 1088.714722,126.666565 1094.701660,125.677673 
	C1106.787964,123.681313 1118.849365,121.535065 1130.923462,119.464584 
	C1135.743896,118.637947 1140.550781,117.689011 1145.399292,117.076057 
	C1154.390869,115.939323 1163.457886,115.320274 1172.401245,113.903252 
	C1181.073730,112.529144 1189.630127,110.423317 1198.237549,108.639091 
	C1199.045410,108.471649 1199.847656,108.266945 1200.662354,108.145439 
	C1211.200684,106.573723 1221.739380,105.004410 1232.280884,103.453903 
	C1242.678467,101.924576 1253.127686,100.687820 1263.467651,98.838028 
	C1279.607300,95.950638 1295.652100,92.830109 1312.061890,91.368164 
	C1323.978638,90.306503 1335.630859,86.529434 1347.487183,84.455887 
	C1356.713013,82.842384 1366.049316,81.756905 1375.377075,80.856102 
	C1386.880371,79.745201 1398.425781,79.068954 1410.465942,78.166405 
	C1410.820923,73.656120 1414.714478,73.496582 1418.949585,72.959908 
	C1429.004883,71.685692 1438.990845,69.868164 1449.011108,68.311348 
	C1450.485962,68.082230 1452.021606,68.217819 1453.484985,67.946465 
	C1463.253052,66.135208 1473.007568,64.250000 1482.771362,62.415375 
	C1484.074707,62.170483 1485.410278,62.101913 1486.724121,61.905941 
	C1490.908447,61.281788 1495.078735,60.549095 1499.274414,60.016552 
	C1508.274902,58.874134 1517.339233,58.140789 1526.280884,56.657204 
	C1534.768799,55.248901 1543.109863,52.977821 1551.561279,51.319572 
	C1556.398071,50.370598 1561.324463,49.875504 1566.213379,49.196304 
	C1578.916260,47.431507 1591.644897,45.835133 1604.317383,43.873875 
	C1616.076782,42.053921 1627.758789,39.738258 1639.507935,37.846142 
	C1650.508057,36.074627 1661.593628,34.811222 1672.561890,32.872681 
	C1680.708496,31.432869 1688.727173,29.269531 1696.804077,27.433979 
	C1697.288086,27.324009 1697.780518,27.240280 1698.273438,27.182417 
	C1706.933838,26.165611 1715.641113,25.443569 1724.243652,24.066900 
	C1734.208008,22.472271 1744.075562,20.277418 1753.995117,18.395910 
	C1758.160156,17.605904 1762.326904,16.723310 1766.534790,16.281313 
	C1776.022217,15.284724 1785.534546,13.921922 1795.038940,13.905684 
	C1801.267944,13.895041 1806.661011,17.141968 1812.048828,21.005428 
	C1818.067871,25.321470 1822.591064,30.492022 1826.354248,36.429234 
	C1828.490234,39.798939 1829.709351,43.961643 1830.484131,47.934410 
	C1831.768677,54.521061 1832.498535,61.227890 1833.214355,67.910622 
	C1834.324585,78.274796 1835.157227,88.668526 1836.241089,99.035751 
	C1837.009399,106.385612 1837.990845,113.713310 1838.889771,121.049370 
	C1840.789429,136.552902 1842.806519,152.043045 1844.566040,167.562424 
	C1845.888184,179.224289 1846.687622,190.946701 1848.083374,202.598587 
	C1849.349854,213.171967 1851.107666,223.686493 1852.647461,234.227158 
	C1852.695679,234.556808 1852.736938,234.887802 1852.769531,235.219360 
	C1853.780518,245.520584 1854.620972,255.842087 1855.843384,266.118134 
	C1857.276978,278.169373 1859.141357,290.169037 1860.621216,302.215363 
	C1861.330566,307.990173 1861.546387,313.824280 1862.053833,319.625549 
	C1863.076660,331.320374 1864.065674,343.019104 1865.223877,354.700836 
	C1866.019897,362.731140 1867.069946,370.736450 1868.020630,378.751251 
	C1869.105591,387.899353 1870.175903,397.049316 1871.307007,406.191772 
	C1872.921143,419.235809 1874.674316,432.263245 1876.198120,445.317657 
	C1877.347046,455.162170 1878.216797,465.039093 1879.233887,474.899231 
	C1880.200317,484.269012 1881.138550,493.642365 1882.198364,503.001740 
	C1883.048706,510.511322 1884.081909,518.000000 1884.999268,525.502197 
	C1886.736450,539.709290 1888.449585,553.919312 1890.170410,568.128418 
	C1891.179321,576.457825 1892.305176,584.775330 1893.161255,593.120483 
	C1894.325928,604.474792 1895.209106,615.857788 1896.354736,627.214233 
	C1897.165283,635.249329 1898.211548,643.260681 1899.151001,651.282776 
	C1900.148193,659.797852 1901.184448,668.308655 1902.130737,676.829407 
	C1903.710938,691.055908 1906.505493,705.294922 1906.439575,719.517700 
	C1906.366089,735.365173 1900.177368,749.664856 1886.577759,759.077942 
	C1880.676270,763.162598 1874.163940,766.306335 1866.167358,766.522339 
	C1857.609375,766.753479 1849.124756,769.379700 1840.587769,770.841370 
	C1835.893677,771.645020 1831.146973,772.138000 1826.443604,772.892700 
	C1822.584961,773.511841 1818.755249,774.310608 1814.032471,774.971191 
	C1805.432739,775.715210 1797.707886,776.473816 1790.002197,777.392822 
	C1789.281738,777.478638 1788.682373,778.578491 1788.026855,779.207642 
	C1776.993896,780.794495 1765.921265,782.150269 1754.940796,784.041809 
	C1746.276123,785.534546 1737.763306,787.897827 1729.109131,789.467285 
	C1723.894409,790.412903 1718.519043,790.432983 1713.250122,791.127991 
	C1703.667236,792.392029 1694.087646,793.712891 1684.547363,795.260559 
	C1673.103149,797.117065 1661.720459,799.353760 1650.275757,801.207336 
	C1638.974243,803.037842 1627.589722,804.373779 1616.315308,806.347290 
	C1607.997925,807.803162 1599.837036,810.135925 1591.535522,811.703186 
	C1584.731079,812.987793 1577.822266,813.718933 1570.959839,814.696716 
	C1560.567139,816.177612 1550.084106,817.204712 1539.802856,819.247253 
	C1524.333984,822.320435 1508.852661,824.850281 1493.136108,826.497925 
	C1478.570312,828.025024 1464.218018,831.550964 1449.750854,834.076782 
	C1443.278687,835.206604 1436.725098,835.876648 1430.261719,837.049011 
	C1418.528442,839.177185 1406.863770,841.691406 1395.114990,843.724426 
	C1386.873169,845.150574 1378.520752,845.925537 1370.251587,847.209595 
	C1361.216797,848.612549 1352.231079,850.330383 1343.204102,851.787537 
	C1338.010864,852.625854 1332.774780,853.195923 1327.563843,853.928406 
	C1315.695801,855.596680 1303.791138,857.052612 1291.979126,859.053833 
	C1283.489990,860.492126 1275.161499,862.856506 1266.695557,864.460876 
	C1260.420044,865.650085 1254.030151,866.223511 1247.706787,867.174988 
	C1237.831787,868.660950 1227.969482,870.231995 1218.102783,871.773132 
	C1214.375122,872.355469 1210.655762,872.993958 1206.922607,873.538330 
	C1200.912964,874.414551 1194.854614,875.018188 1188.889771,876.128784 
	C1180.268799,877.733704 1171.739258,879.830383 1163.116821,881.426331 
	C1159.547852,882.086914 1155.811279,881.787537 1152.200073,882.282837 
	C1140.502563,883.887451 1128.810303,885.546936 1117.149048,887.393799 
	C1103.725098,889.519958 1090.333984,891.853638 1076.933105,894.124451 
	C1065.346069,896.087891 1053.779297,898.174744 1042.177979,900.049011 
	C1031.499268,901.774231 1020.755798,903.111206 1010.098145,904.951233 
	C1001.270264,906.475281 992.525635,908.481567 983.745300,910.280334 
	C983.102295,910.412048 982.477844,910.648499 981.831116,910.745117 
	C971.118835,912.345215 960.406189,913.943542 949.689819,915.515991 
	C939.307861,917.039368 928.882629,918.307556 918.546021,920.091309 
	C902.220093,922.908813 886.056335,926.463318 869.408203,927.496582 
	C861.227539,928.004211 853.225952,931.061218 845.085205,932.670776 
	C839.769836,933.721802 834.349487,934.240967 828.977173,935.005249 
	C817.432007,936.647766 805.865662,938.157227 794.348694,939.978333 
	C782.604980,941.835327 770.928284,944.114319 759.188538,945.998901 
	C747.691101,947.844543 736.110168,949.191284 724.643860,951.201965 
	C716.333374,952.659302 708.179321,954.987183 699.900085,956.651062 
	C694.460571,957.744263 688.938477,958.481079 683.424805,959.138550 
	C674.079041,960.252930 664.652283,960.812683 655.369629,962.294617 
	C647.379272,963.570190 639.549561,965.839722 631.631470,967.591431 
	C630.018127,967.948364 628.320007,967.903198 626.673767,968.134644 
	C622.313477,968.747498 617.967773,969.468201 613.602539,970.041138 
	C605.109558,971.155762 596.577942,972.012085 588.118835,973.336060 
	C582.323303,974.243042 576.623169,975.759521 570.008850,976.942749 
	C561.549683,977.671509 553.924622,978.218750 546.394958,979.383057 
	C543.794556,979.785217 541.431580,981.722778 538.960144,982.959106 
M251.999161,632.943359 
	C251.999161,632.943359 251.925232,632.955566 251.174438,633.015625 
	C250.701401,633.141174 249.918732,633.134399 249.800308,633.411499 
	C246.267853,641.676697 242.540436,649.903015 243.086105,660.087585 
	C242.329361,663.379944 241.746033,666.724182 240.778442,669.953369 
	C238.971115,675.985046 236.887375,681.933289 235.019638,687.947571 
	C233.476532,692.916504 232.074600,697.929260 230.618698,702.925171 
	C229.860413,705.527161 229.120682,708.134583 227.954880,712.193970 
	C236.797073,710.841919 243.987976,709.789612 251.161285,708.628540 
	C255.778549,707.881226 260.369995,706.974182 265.032776,706.887756 
	C265.446838,707.534180 265.712463,708.523193 266.296875,708.776428 
	C277.876404,713.793396 289.201660,713.485840 300.254028,707.089478 
	C307.217224,703.059692 314.140717,698.812622 322.772308,699.933472 
	C323.552185,700.034790 324.397949,699.744690 325.196869,699.564331 
	C330.368286,698.396790 335.587372,697.395142 340.685669,695.964355 
	C344.220367,694.972412 347.586639,693.380371 351.750214,691.767944 
	C354.773438,691.080566 357.771057,690.238159 360.824524,689.734070 
	C371.173462,688.025330 381.542389,686.437683 391.902374,684.795715 
	C392.221588,684.745117 392.522217,684.586670 392.839508,684.513184 
	C400.876648,682.651428 408.862976,680.513489 416.967743,679.017212 
	C424.730835,677.583862 432.625671,676.876526 440.445618,675.733887 
	C444.470337,675.145813 448.470490,674.366516 452.459930,673.565125 
	C461.514984,671.746155 470.516693,669.627441 479.615387,668.070496 
	C487.740845,666.680115 495.965912,665.868835 504.150085,664.826111 
	C506.498657,664.526855 507.628662,663.508118 506.153168,661.234436 
	C501.320312,653.787048 496.339661,646.434814 491.557770,638.955200 
	C487.253723,632.222961 483.131348,625.374573 478.938873,618.571106 
	C475.273926,612.623779 471.698578,606.619690 467.944183,600.729553 
	C464.363464,595.111877 460.519714,589.661743 456.940552,584.043091 
	C451.814880,575.996643 446.824615,567.863831 442.181091,560.416748 
	C431.178619,562.429932 421.260925,564.510986 411.255524,566.004272 
	C400.111267,567.667419 388.639862,566.906677 377.784424,570.903870 
	C375.281403,571.825500 372.054779,570.787354 369.556335,571.715149 
	C364.286255,573.672302 359.209351,575.710693 353.375000,574.800537 
	C351.304321,574.477539 348.263916,574.253601 347.092316,575.418579 
	C343.414429,579.075867 339.067932,577.574341 334.974548,577.987915 
	C333.157990,578.171448 331.248749,577.812073 329.498291,578.211182 
	C321.476288,580.040039 313.541016,583.309021 305.485809,583.599487 
	C298.969849,583.834595 293.459137,587.648682 286.554657,586.571228 
	C281.249603,585.743347 275.362000,587.764099 269.916107,589.207336 
	C268.033966,589.705994 266.083649,592.016907 265.251465,593.964478 
	C263.668060,597.670105 262.995575,601.752808 261.714325,605.602234 
	C259.221527,613.091736 256.569611,620.528259 253.243500,628.115417 
	C252.807404,629.711731 252.371323,631.308044 251.999161,632.943359 
M1121.591064,403.943604 
	C1122.586426,403.859833 1123.597046,403.858948 1124.574951,403.679657 
	C1135.485352,401.679321 1146.373169,399.550018 1157.303711,397.667603 
	C1164.283569,396.465515 1171.367920,395.849701 1178.327026,394.551453 
	C1186.784546,392.973694 1195.131348,390.808685 1203.578613,389.168396 
	C1211.663940,387.598389 1219.816528,386.375153 1227.829346,385.018158 
	C1223.406250,372.598145 1219.096313,360.849945 1215.042236,349.014130 
	C1210.804810,336.643494 1206.818115,324.187012 1202.711792,311.771362 
	C1201.183838,307.150970 1199.282959,304.177582 1193.120850,305.634705 
	C1183.906494,307.813538 1174.393921,308.719238 1165.020508,310.242279 
	C1161.159912,310.869568 1157.331055,311.692780 1153.488037,312.428406 
	C1143.573853,314.326233 1133.685913,316.376312 1123.737549,318.074219 
	C1116.128540,319.372955 1108.433472,320.161041 1100.796387,321.306854 
	C1097.101685,321.861206 1093.447021,322.691132 1089.782959,323.439331 
	C1080.835083,325.266571 1071.937134,327.385193 1062.936279,328.893738 
	C1051.677612,330.780670 1040.336304,332.174377 1028.694458,333.828796 
	C1029.270264,341.798767 1029.509766,348.948059 1030.362305,356.023468 
	C1031.679321,366.953369 1033.460693,377.826569 1034.958740,388.735687 
	C1035.964722,396.061890 1036.819092,403.408875 1037.744995,410.746094 
	C1039.452759,424.278229 1041.260010,437.798706 1042.843628,451.345337 
	C1044.204834,462.988403 1045.164062,474.679016 1046.570801,486.316010 
	C1048.152100,499.398041 1050.096069,512.435852 1051.766724,525.507629 
	C1052.896729,534.348389 1053.752441,543.224121 1054.864868,552.067322 
	C1056.465088,564.788086 1058.220215,577.489319 1059.845581,590.206970 
	C1060.909424,598.531494 1061.877808,606.868286 1062.859497,615.203064 
	C1064.866211,632.239258 1066.850830,649.278198 1068.849365,666.315369 
	C1070.117554,677.126343 1071.399902,687.935608 1072.662109,698.747253 
	C1072.932373,701.062439 1072.810791,703.478821 1073.437622,705.687439 
	C1076.564575,716.703430 1079.687256,727.728210 1083.204346,738.623047 
	C1085.261719,744.996460 1088.054688,751.132324 1090.711060,757.867615 
	C1092.005981,756.916199 1092.822632,756.485779 1093.421631,755.850342 
	C1101.537231,747.242615 1109.614502,738.598755 1117.718140,729.979736 
	C1124.000366,723.297913 1130.377197,716.703186 1136.579712,709.948486 
	C1141.482544,704.609131 1146.322144,699.197327 1150.888672,693.573120 
	C1152.206299,691.950317 1153.665771,688.999207 1153.046143,687.476685 
	C1148.354858,675.949585 1146.340210,663.794067 1144.156250,651.698425 
	C1142.755737,643.941711 1142.089966,636.049805 1141.167236,628.210022 
	C1140.108154,619.213501 1139.108887,610.209778 1138.120361,601.205200 
	C1136.855835,589.687378 1135.661133,578.161804 1134.371338,566.646912 
	C1133.649048,560.198914 1132.795532,553.765686 1131.989136,547.227905 
	C1160.731567,542.205994 1188.915405,537.281616 1216.408569,532.477966 
	C1218.971924,502.783081 1221.400635,474.648315 1223.848511,446.291534 
	C1221.824219,446.291534 1220.316650,446.043030 1218.920410,446.332214 
	C1210.343994,448.108337 1201.845459,450.312866 1193.220703,451.789001 
	C1181.277344,453.833191 1169.226807,455.243622 1157.260254,457.162872 
	C1152.140869,457.983978 1147.152222,459.600861 1142.041870,460.502350 
	C1135.304565,461.690796 1128.505981,462.531097 1121.306641,463.583527 
	C1120.768921,456.135223 1120.549438,449.497681 1119.757568,442.929108 
	C1118.400513,431.673401 1116.685791,420.460754 1115.842651,409.155518 
	C1117.472046,407.467957 1119.101440,405.780426 1121.591064,403.943604 
M897.859192,684.789795 
	C897.307678,682.737305 896.497620,680.716064 896.245544,678.627441 
	C894.150696,661.272888 892.166992,643.905029 890.132263,626.543213 
	C889.173767,618.364929 888.230103,610.184387 887.184998,602.017029 
	C885.540771,589.167969 883.788391,576.332703 882.136414,563.484619 
	C881.107300,555.481323 880.154663,547.468018 879.211853,539.453918 
	C878.169189,530.591248 877.190186,521.721069 876.159058,512.856995 
	C875.167847,504.336609 874.138855,495.820557 873.138123,487.301239 
	C872.119568,478.630310 871.191101,469.948059 870.086426,461.288177 
	C868.508606,448.919067 866.704468,436.578339 865.181702,424.202759 
	C863.064331,406.995392 861.117310,389.767090 859.099121,372.547516 
	C858.772888,369.764435 859.383240,366.071533 857.834290,364.489960 
	C856.638184,363.268646 852.716003,364.547119 850.046387,364.970215 
	C841.327454,366.352142 832.628052,367.856903 823.919373,369.303894 
	C814.389709,370.887299 804.872803,372.556458 795.321655,373.998016 
	C789.881958,374.819061 784.318726,375.169067 783.947510,382.581024 
	C783.931213,382.905762 783.843933,383.244049 783.714478,383.543457 
	C779.963684,392.215271 776.109070,400.843567 772.469971,409.561829 
	C768.443970,419.206848 764.720520,428.978424 760.671753,438.613525 
	C755.394287,451.172852 749.904724,463.642883 744.550232,476.170074 
	C742.001099,482.134003 739.553162,488.141266 736.884094,494.549988 
	C734.804749,492.343445 732.909485,490.616638 731.348938,488.627258 
	C724.513123,479.913635 717.742310,471.148407 711.009949,462.354370 
	C705.240845,454.818481 699.533997,447.234558 693.838989,439.642334 
	C684.497986,427.189575 674.953064,414.878571 666.008667,402.146271 
	C663.289001,398.274811 660.531738,397.260620 656.341919,398.041656 
	C651.675842,398.911499 646.957520,399.508270 642.303284,400.432159 
	C633.406982,402.198029 624.575195,404.307739 615.650574,405.906281 
	C607.420227,407.380493 599.103394,408.371704 590.535522,409.617706 
	C590.535522,411.816284 590.289917,414.128174 590.576050,416.372284 
	C592.258606,429.569763 594.112732,442.745331 595.812500,455.940704 
	C596.886841,464.280945 597.742310,472.649200 598.786133,480.993591 
	C600.460205,494.376373 602.231323,507.747009 603.917847,521.128235 
	C604.924744,529.117554 605.859253,537.116089 606.807251,545.112671 
	C608.825867,562.141113 610.832031,579.170959 612.843323,596.200256 
	C613.851074,604.732971 614.802551,613.272766 615.879883,621.796692 
	C617.485291,634.498962 619.220276,647.184937 620.821594,659.887756 
	C621.892883,668.386597 622.817261,676.903870 623.825928,685.410706 
	C625.844055,702.429810 627.926086,719.441650 629.882690,736.467834 
	C631.202820,747.955505 632.365845,759.461365 633.570862,770.962097 
	C633.844727,773.576355 634.001465,776.203003 634.252502,779.325439 
	C637.943176,779.095886 641.454895,779.251404 644.810730,778.601562 
	C656.909363,776.258728 668.911743,773.401978 681.036499,771.216309 
	C689.455627,769.698669 698.006592,768.882935 706.517883,767.923279 
	C709.390259,767.599487 710.815979,766.519104 710.342834,763.492249 
	C709.609985,758.804199 708.802734,754.122925 708.246643,749.412903 
	C706.122559,731.423767 704.112610,713.421204 702.004089,695.430237 
	C701.159180,688.221313 700.164124,681.029907 699.247192,673.829346 
	C697.540283,660.426086 695.756653,647.031921 694.163269,633.615112 
	C692.800476,622.140076 691.717651,610.632019 690.392456,599.152161 
	C689.829834,594.278564 688.792725,589.458374 688.270142,584.581848 
	C686.827454,571.118835 685.542419,557.638916 684.122192,543.437866 
	C685.453857,544.959473 686.407471,545.923767 687.217163,546.996704 
	C690.191895,550.938293 693.058899,554.962219 696.081909,558.865784 
	C698.683044,562.224670 701.558044,565.374084 704.108459,568.768982 
	C711.551392,578.676453 718.826416,588.710327 726.292480,598.600159 
	C733.485535,608.128418 740.792480,617.571899 748.148499,626.975098 
	C749.749451,629.021667 751.771423,630.738953 753.567200,632.574829 
	C769.340454,595.414856 784.573853,559.526794 800.028137,523.118347 
	C801.365845,533.243286 802.647034,542.660339 803.844421,552.088013 
	C804.902100,560.415894 805.804016,568.763855 806.886475,577.088379 
	C808.475769,589.311340 810.224731,601.513672 811.790771,613.739563 
	C812.901794,622.413208 813.818787,631.111694 814.830078,639.798218 
	C815.820557,648.305969 816.822876,656.812439 817.816040,665.319885 
	C818.847900,674.158447 819.911926,682.993408 820.894897,691.837402 
	C822.225647,703.811096 823.443420,715.797546 824.807373,727.767395 
	C825.508240,733.917908 826.421265,740.044189 827.349915,747.018311 
	C835.493958,745.331116 842.974792,743.595581 850.526184,742.257874 
	C863.714722,739.921631 876.940796,737.793701 890.164978,735.664490 
	C893.116455,735.189331 896.224731,735.427246 899.065918,734.636597 
	C900.496277,734.238525 902.612183,732.171021 902.510803,731.027588 
	C901.169128,715.893860 899.488037,700.790222 897.859192,684.789795 
M1568.399048,239.840927 
	C1560.925903,244.545822 1552.660645,248.367249 1546.179199,254.178192 
	C1537.985596,261.523895 1530.313354,269.856812 1524.140625,278.936249 
	C1518.025879,287.930084 1513.129028,298.046204 1509.419922,308.293396 
	C1506.112793,317.429626 1504.271484,327.337189 1503.390991,337.050110 
	C1502.281860,349.282654 1501.969604,361.722382 1502.833984,373.965393 
	C1503.956177,389.860229 1506.281128,405.693878 1508.667114,421.466278 
	C1509.978149,430.132935 1512.120605,438.721558 1514.528320,447.162720 
	C1517.708618,458.312134 1521.343628,469.342010 1525.111572,480.310394 
	C1527.930908,488.517242 1530.798218,496.768341 1534.496338,504.597168 
	C1539.168091,514.487000 1544.713745,523.963440 1549.865601,533.627136 
	C1552.427368,538.432434 1554.354858,543.712646 1557.610474,547.984619 
	C1565.939819,558.914246 1574.403320,569.810791 1583.672607,579.933716 
	C1591.343018,588.310669 1600.599365,594.821472 1610.703491,600.524597 
	C1625.546875,608.902832 1640.970581,611.470032 1657.662720,611.032043 
	C1672.198486,610.650574 1684.980835,605.452332 1696.682495,598.023315 
	C1708.271851,590.665527 1718.106201,581.070435 1726.159546,569.535645 
	C1734.516846,557.565613 1741.848755,545.133484 1747.055298,531.585266 
	C1751.510254,519.992676 1755.517944,508.164062 1758.719849,496.171875 
	C1762.048096,483.706573 1764.731079,471.004364 1766.662109,458.249207 
	C1768.514160,446.017517 1769.313354,433.602234 1770.092407,421.237244 
	C1771.862427,393.142883 1770.555908,365.132599 1766.861816,337.239960 
	C1766.085815,331.381134 1765.307861,325.437469 1763.626221,319.802856 
	C1760.792480,310.308258 1757.360229,300.983673 1753.937134,291.676758 
	C1751.714355,285.633270 1749.904907,279.195404 1746.436401,273.899536 
	C1737.405640,260.110870 1727.241455,247.444595 1713.102905,237.974319 
	C1698.605103,228.263367 1682.714844,223.708328 1665.944702,222.188522 
	C1646.273071,220.405685 1626.624756,222.064255 1607.299438,226.501312 
	C1602.567871,227.587646 1597.732910,228.448151 1593.193604,230.096054 
	C1585.096680,233.035492 1577.188599,236.495605 1568.399048,239.840927 
M1463.821289,439.283142 
	C1466.587036,432.966644 1469.005371,426.468628 1472.190918,420.371429 
	C1478.833496,407.656982 1480.736572,393.794800 1481.818481,379.919342 
	C1482.975830,365.078491 1481.928345,350.204651 1477.100220,335.918243 
	C1474.216309,327.384521 1471.802124,318.510986 1467.570312,310.655548 
	C1460.893799,298.262543 1451.762207,287.591187 1438.844849,281.086029 
	C1432.761353,278.022461 1426.488403,274.446106 1419.931519,273.383057 
	C1402.284668,270.522003 1384.570679,272.015289 1367.030151,275.341949 
	C1363.195312,276.069244 1359.339355,276.685669 1355.508789,277.433441 
	C1345.945435,279.300354 1336.425171,281.411499 1326.824585,283.056519 
	C1315.486206,284.999298 1304.061279,286.432922 1292.711182,288.311737 
	C1280.309326,290.364624 1267.950439,292.677094 1255.571899,294.870758 
	C1250.799194,295.716492 1246.023926,296.546722 1241.502686,297.339630 
	C1238.998535,326.398804 1236.535034,354.985809 1234.023315,384.132965 
	C1237.294434,383.915405 1239.953491,384.015106 1242.496338,383.519287 
	C1251.254517,381.811371 1259.922974,379.602692 1268.716919,378.129120 
	C1281.034302,376.065125 1293.433716,374.489929 1305.797729,372.703156 
	C1306.127075,372.655548 1306.453369,372.584320 1306.779419,372.515869 
	C1315.513672,370.680725 1324.226318,368.731934 1332.990112,367.050476 
	C1338.297974,366.032043 1343.664551,365.225830 1349.041016,364.679688 
	C1359.520142,363.615173 1370.012207,362.597687 1380.522705,361.944885 
	C1389.253662,361.402618 1393.376709,367.778168 1394.862915,375.679291 
	C1397.557739,390.005493 1394.136230,403.745605 1387.409546,416.177917 
	C1381.702393,426.726105 1374.386597,436.469421 1367.194824,446.131470 
	C1359.104248,457.001343 1350.331787,467.362610 1341.931030,478.004395 
	C1341.158936,478.982483 1340.182129,480.754883 1340.565552,481.542328 
	C1344.695679,490.023926 1349.002808,498.422516 1353.422119,506.758667 
	C1356.247803,512.088684 1359.450073,517.218689 1362.288086,522.542542 
	C1365.691528,528.926941 1368.601318,535.588318 1372.232422,541.834717 
	C1379.649536,554.593872 1387.296875,567.223267 1395.066772,579.771484 
	C1399.329346,586.655396 1403.999634,593.289062 1408.551636,599.990967 
	C1412.026978,605.107666 1415.673462,610.108643 1419.118652,615.244934 
	C1422.764526,620.680420 1425.968262,626.435913 1429.890015,631.657410 
	C1436.711426,640.739685 1443.814453,649.619019 1451.023804,658.399109 
	C1459.307129,668.486877 1467.793335,678.409241 1476.285767,688.322815 
	C1478.285889,690.657837 1480.312988,690.396790 1482.353638,687.898621 
	C1489.713257,678.888611 1497.154663,669.943970 1504.664307,661.058350 
	C1514.643433,649.250732 1524.755249,637.554749 1534.649780,625.677307 
	C1535.250610,624.956055 1534.937378,622.648804 1534.210815,621.785339 
	C1530.545898,617.429871 1526.431396,613.451050 1522.793091,609.075195 
	C1515.379150,600.158508 1508.086304,591.137634 1500.898682,582.037109 
	C1493.627930,572.831421 1486.219727,563.706543 1479.466919,554.126770 
	C1472.049438,543.604309 1465.233154,532.652832 1458.297729,521.796997 
	C1450.304443,509.285187 1442.412109,496.707428 1434.654175,484.049103 
	C1433.934937,482.875702 1433.830933,480.422729 1434.581299,479.403076 
	C1438.425537,474.179840 1442.425903,469.034454 1446.781372,464.233490 
	C1453.463501,456.867798 1458.967529,448.774292 1463.821289,439.283142 
M535.846741,808.108154 
	C554.312073,805.137756 572.777466,802.167419 592.500793,798.994690 
	C570.851685,764.593750 550.015076,731.483826 529.467346,698.833008 
	C526.676025,699.283752 524.497864,699.739319 522.296265,699.970154 
	C517.168213,700.507751 511.999817,700.733276 506.901184,701.459778 
	C499.884277,702.459473 492.917633,703.810486 485.926666,704.994629 
	C485.114685,705.132080 484.255493,705.053955 483.468262,705.263733 
	C478.994537,706.455444 474.598297,708.066772 470.057434,708.846558 
	C463.700836,709.938110 457.237915,710.404541 450.826141,711.184937 
	C449.353485,711.364258 447.911133,711.779907 446.442383,712.006165 
	C437.710083,713.351501 428.964447,714.613892 420.245087,716.037598 
	C417.514435,716.483521 414.847504,717.328003 412.158447,718.017395 
	C410.060394,718.555359 408.004456,719.373230 405.875427,719.653564 
	C399.002167,720.558472 392.103790,721.272339 385.215118,722.060425 
	C384.884155,722.098328 384.549957,722.121887 384.223663,722.185120 
	C375.904083,723.798523 367.580902,725.394043 359.269043,727.046387 
	C356.605225,727.575806 353.969086,728.246643 351.325043,728.872803 
	C348.524445,729.536011 344.376465,731.718567 343.174835,730.631409 
	C338.810425,726.682983 335.149017,730.685547 332.091400,731.504761 
	C322.753296,734.006409 313.537384,735.958069 303.814148,736.102356 
	C297.255493,736.199707 290.714325,737.510620 284.168274,738.303406 
	C283.875549,738.338806 283.632477,738.685791 283.332733,738.776367 
	C279.652588,739.887695 275.984985,741.047607 272.275940,742.053955 
	C268.928070,742.962402 265.538483,743.720459 262.156982,744.500183 
	C259.830933,745.036560 257.004639,746.563904 255.251144,745.770813 
	C251.508575,744.078125 248.349243,745.220032 244.905243,745.977844 
	C239.823257,747.096008 234.692947,747.992615 229.597549,749.052490 
	C226.818680,749.630554 224.054214,750.939575 221.310333,750.868896 
	C217.196869,750.762817 215.346558,752.879822 214.270676,756.216431 
	C213.092697,759.869751 212.289169,763.647461 211.037704,767.272644 
	C207.904404,776.349060 204.405441,785.303406 201.434875,794.430908 
	C198.107330,804.655090 195.228683,815.024780 192.102371,825.315247 
	C187.633102,840.026062 183.116302,854.722412 178.317429,870.413574 
	C186.492661,869.061096 194.589020,867.681519 202.701904,866.407227 
	C204.772980,866.081909 206.895294,865.998169 208.996155,865.971924 
	C210.901779,865.948181 213.270248,866.939453 214.644882,866.134460 
	C225.856323,859.569702 238.824188,862.275818 250.620789,858.991089 
	C257.718567,857.014709 265.949768,860.206238 272.238525,854.209534 
	C272.871124,853.606323 274.517578,854.172974 275.653564,853.971497 
	C279.489716,853.291260 283.318298,852.558533 287.128967,851.748230 
	C289.438843,851.257019 291.731323,850.008911 293.995636,850.091187 
	C306.621277,850.549683 318.806641,848.119812 330.984100,845.239746 
	C335.859344,844.086731 340.898651,843.626282 345.864655,842.859558 
	C346.682434,842.733337 347.524109,842.726257 348.326508,842.541504 
	C356.511230,840.657104 364.634033,838.440735 372.886536,836.931763 
	C380.929779,835.461060 389.373688,835.630432 397.140656,833.363342 
	C404.139832,831.320312 410.905457,829.895325 418.189636,829.850891 
	C423.340271,829.819519 428.485199,828.532898 433.626892,827.767517 
	C434.266357,827.672363 434.855164,827.272949 435.493011,827.124390 
	C438.469452,826.431030 441.425232,825.505249 444.444489,825.174744 
	C448.395599,824.742310 452.688690,825.664185 456.323151,824.459778 
	C465.174500,821.526489 473.953156,818.922241 483.404358,819.091858 
	C485.958862,819.137634 488.557831,818.413086 491.087311,817.829529 
	C499.325592,815.928772 507.520416,813.836243 515.772217,811.998291 
	C522.139343,810.580200 528.566956,809.433777 535.846741,808.108154 
M939.218201,640.066467 
	C939.746643,641.774231 940.523804,643.447876 940.763733,645.195251 
	C942.527893,658.043762 944.304749,670.892578 945.840454,683.769653 
	C947.287170,695.900513 948.442444,708.066101 949.730652,720.215881 
	C949.883545,721.658325 950.066223,723.097534 950.360718,725.609863 
	C975.884338,720.935303 1000.998840,716.335693 1026.766724,711.616394 
	C1025.793579,705.107178 1024.833618,699.140869 1024.023682,693.154175 
	C1023.007690,685.643555 1022.130554,678.114319 1021.165100,670.596680 
	C1019.467102,657.375122 1017.729370,644.158630 1016.044006,630.935486 
	C1015.067261,623.272339 1014.131348,615.603699 1013.229736,607.931335 
	C1012.171814,598.929016 1011.192688,589.917358 1010.139221,580.914429 
	C1009.163574,572.577026 1008.123962,564.247070 1007.131958,555.911560 
	C1005.128113,539.074036 1003.138855,522.234680 1001.140503,505.396454 
	C1000.169006,497.210388 999.235596,489.019440 998.205078,480.840790 
	C996.540161,467.627258 994.788025,454.424744 993.114136,441.212311 
	C992.082458,433.068695 991.107788,424.917725 990.143738,416.765778 
	C989.119263,408.102142 988.065002,399.441071 987.154175,390.765198 
	C985.667664,376.605713 984.056396,362.452362 982.997986,348.259125 
	C982.668213,343.836334 981.384644,342.122284 977.057617,342.994141 
	C967.471313,344.925720 957.927979,347.115326 948.287354,348.720917 
	C935.984131,350.770020 923.623840,352.524506 911.242004,354.025909 
	C907.198303,354.516266 905.548584,355.918304 906.188232,359.980316 
	C907.132507,365.976746 908.027832,371.983765 908.782166,378.006561 
	C909.887329,386.829926 910.844299,395.671814 911.873718,404.504730 
	C912.883728,413.171783 913.898987,421.838287 914.923523,430.503693 
	C915.910034,438.847656 916.906189,447.190552 917.908081,455.532715 
	C918.868774,463.532654 919.803833,471.535919 920.818665,479.529053 
	C922.452698,492.398499 924.216919,505.251801 925.791260,518.128357 
	C927.887451,535.274109 929.845459,552.436707 931.880859,569.589905 
	C932.834045,577.622864 933.953674,585.638062 934.778442,593.683777 
	C936.331604,608.834961 937.725769,624.002502 939.218201,640.066467 
M1349.066895,575.135254 
	C1347.099976,558.619507 1345.134155,542.103577 1343.165771,525.588013 
	C1342.190186,517.402710 1341.251831,509.212708 1340.222534,501.034119 
	C1338.539185,487.660431 1336.772095,474.297272 1335.085571,460.923950 
	C1334.076904,452.926636 1333.066895,444.927765 1332.211792,436.913177 
	C1330.739502,423.112274 1329.459595,409.290680 1327.948120,395.494293 
	C1327.381958,390.325592 1326.394653,385.203003 1325.510010,379.480499 
	C1299.867188,384.787537 1274.048706,386.616791 1249.629883,393.181335 
	C1250.237183,397.756439 1250.779907,401.114929 1251.108765,404.494263 
	C1251.607910,409.623138 1251.754761,414.792755 1252.414307,419.898193 
	C1253.821655,430.792480 1255.514282,441.649567 1256.988892,452.535645 
	C1258.028809,460.213287 1258.859985,467.918976 1259.859863,475.602325 
	C1261.490723,488.135040 1263.226562,500.654175 1264.834595,513.189758 
	C1265.903076,521.518982 1266.834717,529.865906 1267.812012,538.206726 
	C1269.863770,555.718323 1271.895020,573.232239 1273.955444,590.742859 
	C1274.899170,598.764221 1275.982300,606.770264 1276.841309,614.800415 
	C1278.284058,628.288696 1279.525757,641.798828 1281.010132,655.282349 
	C1281.466187,659.425476 1282.437500,663.511780 1283.248291,668.045288 
	C1294.541138,666.155823 1305.210938,664.447998 1315.850464,662.568481 
	C1326.267334,660.728333 1336.643555,658.658936 1347.058105,656.804749 
	C1350.592651,656.175415 1354.189209,655.894775 1358.886963,655.315491 
	C1357.631714,645.947754 1356.269409,637.011963 1355.269531,628.035767 
	C1353.713989,614.067932 1352.458496,600.066772 1350.952515,586.093079 
	C1350.587769,582.710266 1349.741577,579.379333 1349.066895,575.135254 
M375.569977,533.051025 
	C378.789093,532.542236 382.013794,532.066345 385.226196,531.518188 
	C393.916351,530.035339 402.607483,528.556641 411.284576,527.000122 
	C414.074646,526.499695 416.822113,525.761841 420.058533,525.025757 
	C390.155060,477.576355 360.760986,430.935242 331.366913,384.294128 
	C327.682037,392.728088 325.339478,400.417297 322.920685,408.082458 
	C318.302307,422.718048 313.612701,437.331238 309.005219,451.970276 
	C305.013672,464.652222 301.049286,477.343048 297.158234,490.056091 
	C294.026306,500.288788 291.098022,510.584106 287.924896,520.803711 
	C286.593231,525.092651 284.659454,529.196655 283.367554,533.495361 
	C281.861847,538.505554 280.758972,543.636841 279.329529,549.318970 
	C283.138275,548.985168 286.306915,548.984009 289.359009,548.386963 
	C297.664886,546.762329 305.890900,544.722900 314.207367,543.161194 
	C320.656158,541.950195 327.206055,541.288757 333.689026,540.246399 
	C347.406494,538.040894 361.109589,535.745972 375.569977,533.051025 
z"/>
<path fill="#FFC27F" opacity="1.000000" stroke="none" 
	d="
M106.085838,1041.251465 
	C109.572968,1042.389893 113.134308,1043.883667 116.705254,1045.354004 
	C123.686348,1048.228516 130.573807,1047.355835 137.825867,1045.876343 
	C146.422150,1044.122314 155.303940,1043.767456 164.521271,1042.892578 
	C164.582565,1043.480225 164.248596,1044.343506 163.776764,1044.426880 
	C158.639496,1045.334961 153.464310,1046.031006 148.332108,1046.964233 
	C142.576157,1048.010742 136.895477,1049.661865 131.101318,1050.237671 
	C127.507881,1050.594849 123.516930,1050.092407 120.146965,1048.811401 
	C115.275734,1046.959839 110.805626,1044.052734 106.085838,1041.251465 
z"/>
<path fill="#FFCD93" opacity="1.000000" stroke="none" 
	d="
M670.565796,193.943176 
	C670.473877,194.592056 669.984558,195.566711 669.360107,195.662766 
	C663.565063,196.554199 657.733215,197.209259 651.941895,198.121811 
	C649.745239,198.467941 647.662720,199.555328 645.465454,199.877380 
	C634.995728,201.411942 624.504333,202.799438 613.564148,204.185089 
	C613.581421,203.521881 613.986694,202.457153 614.539734,202.373856 
	C620.517090,201.473663 626.552368,200.925186 632.501831,199.881485 
	C637.918518,198.931259 643.201538,197.184830 648.629211,196.339264 
	C655.744019,195.230881 662.942932,194.662216 670.565796,193.943176 
z"/>
<path fill="#FFC98C" opacity="1.000000" stroke="none" 
	d="
M539.397339,983.037842 
	C541.431580,981.722778 543.794556,979.785217 546.394958,979.383057 
	C553.924622,978.218750 561.549683,977.671509 569.591309,976.972290 
	C567.203857,978.304077 564.465454,980.179565 561.500610,980.661377 
	C554.334778,981.826050 547.063354,982.340210 539.397339,983.037842 
z"/>
<path fill="#FFCD93" opacity="1.000000" stroke="none" 
	d="
M609.984497,204.436920 
	C609.547729,205.287537 608.747864,206.466049 607.824829,206.572037 
	C599.519592,207.525726 591.192688,208.291153 582.417786,209.028900 
	C585.608948,207.663498 589.167419,205.796707 592.920715,205.237106 
	C598.395081,204.420898 604.009521,204.544479 609.984497,204.436920 
z"/>
<path fill="#FFCC92" opacity="1.000000" stroke="none" 
	d="
M1788.312622,779.430603 
	C1788.682373,778.578491 1789.281738,777.478638 1790.002197,777.392822 
	C1797.707886,776.473816 1805.432739,775.715210 1813.601807,774.994446 
	C1810.517700,776.354065 1807.073608,778.179871 1803.428589,778.774902 
	C1798.566895,779.568542 1793.549072,779.405640 1788.312622,779.430603 
z"/>
<path fill="#FFC27F" opacity="1.000000" stroke="none" 
	d="
M101.130234,1038.262085 
	C101.909615,1038.477295 102.765144,1039.007690 103.675613,1039.882324 
	C102.889175,1039.676758 102.047783,1039.127075 101.130234,1038.262085 
z"/>
<path fill="#FFFEFD" opacity="1.000000" stroke="none" 
	d="
M897.875488,685.234436 
	C899.488037,700.790222 901.169128,715.893860 902.510803,731.027588 
	C902.612183,732.171021 900.496277,734.238525 899.065918,734.636597 
	C896.224731,735.427246 893.116455,735.189331 890.164978,735.664490 
	C876.940796,737.793701 863.714722,739.921631 850.526184,742.257874 
	C842.974792,743.595581 835.493958,745.331116 827.349915,747.018311 
	C826.421265,740.044189 825.508240,733.917908 824.807373,727.767395 
	C823.443420,715.797546 822.225647,703.811096 820.894897,691.837402 
	C819.911926,682.993408 818.847900,674.158447 817.816040,665.319885 
	C816.822876,656.812439 815.820557,648.305969 814.830078,639.798218 
	C813.818787,631.111694 812.901794,622.413208 811.790771,613.739563 
	C810.224731,601.513672 808.475769,589.311340 806.886475,577.088379 
	C805.804016,568.763855 804.902100,560.415894 803.844421,552.088013 
	C802.647034,542.660339 801.365845,533.243286 800.028137,523.118347 
	C784.573853,559.526794 769.340454,595.414856 753.567200,632.574829 
	C751.771423,630.738953 749.749451,629.021667 748.148499,626.975098 
	C740.792480,617.571899 733.485535,608.128418 726.292480,598.600159 
	C718.826416,588.710327 711.551392,578.676453 704.108459,568.768982 
	C701.558044,565.374084 698.683044,562.224670 696.081909,558.865784 
	C693.058899,554.962219 690.191895,550.938293 687.217163,546.996704 
	C686.407471,545.923767 685.453857,544.959473 684.122192,543.437866 
	C685.542419,557.638916 686.827454,571.118835 688.270142,584.581848 
	C688.792725,589.458374 689.829834,594.278564 690.392456,599.152161 
	C691.717651,610.632019 692.800476,622.140076 694.163269,633.615112 
	C695.756653,647.031921 697.540283,660.426086 699.247192,673.829346 
	C700.164124,681.029907 701.159180,688.221313 702.004089,695.430237 
	C704.112610,713.421204 706.122559,731.423767 708.246643,749.412903 
	C708.802734,754.122925 709.609985,758.804199 710.342834,763.492249 
	C710.815979,766.519104 709.390259,767.599487 706.517883,767.923279 
	C698.006592,768.882935 689.455627,769.698669 681.036499,771.216309 
	C668.911743,773.401978 656.909363,776.258728 644.810730,778.601562 
	C641.454895,779.251404 637.943176,779.095886 634.252502,779.325439 
	C634.001465,776.203003 633.844727,773.576355 633.570862,770.962097 
	C632.365845,759.461365 631.202820,747.955505 629.882690,736.467834 
	C627.926086,719.441650 625.844055,702.429810 623.825928,685.410706 
	C622.817261,676.903870 621.892883,668.386597 620.821594,659.887756 
	C619.220276,647.184937 617.485291,634.498962 615.879883,621.796692 
	C614.802551,613.272766 613.851074,604.732971 612.843323,596.200256 
	C610.832031,579.170959 608.825867,562.141113 606.807251,545.112671 
	C605.859253,537.116089 604.924744,529.117554 603.917847,521.128235 
	C602.231323,507.747009 600.460205,494.376373 598.786133,480.993591 
	C597.742310,472.649200 596.886841,464.280945 595.812500,455.940704 
	C594.112732,442.745331 592.258606,429.569763 590.576050,416.372284 
	C590.289917,414.128174 590.535522,411.816284 590.535522,409.617706 
	C599.103394,408.371704 607.420227,407.380493 615.650574,405.906281 
	C624.575195,404.307739 633.406982,402.198029 642.303284,400.432159 
	C646.957520,399.508270 651.675842,398.911499 656.341919,398.041656 
	C660.531738,397.260620 663.289001,398.274811 666.008667,402.146271 
	C674.953064,414.878571 684.497986,427.189575 693.838989,439.642334 
	C699.533997,447.234558 705.240845,454.818481 711.009949,462.354370 
	C717.742310,471.148407 724.513123,479.913635 731.348938,488.627258 
	C732.909485,490.616638 734.804749,492.343445 736.884094,494.549988 
	C739.553162,488.141266 742.001099,482.134003 744.550232,476.170074 
	C749.904724,463.642883 755.394287,451.172852 760.671753,438.613525 
	C764.720520,428.978424 768.443970,419.206848 772.469971,409.561829 
	C776.109070,400.843567 779.963684,392.215271 783.714478,383.543457 
	C783.843933,383.244049 783.931213,382.905762 783.947510,382.581024 
	C784.318726,375.169067 789.881958,374.819061 795.321655,373.998016 
	C804.872803,372.556458 814.389709,370.887299 823.919373,369.303894 
	C832.628052,367.856903 841.327454,366.352142 850.046387,364.970215 
	C852.716003,364.547119 856.638184,363.268646 857.834290,364.489960 
	C859.383240,366.071533 858.772888,369.764435 859.099121,372.547516 
	C861.117310,389.767090 863.064331,406.995392 865.181702,424.202759 
	C866.704468,436.578339 868.508606,448.919067 870.086426,461.288177 
	C871.191101,469.948059 872.119568,478.630310 873.138123,487.301239 
	C874.138855,495.820557 875.167847,504.336609 876.159058,512.856995 
	C877.190186,521.721069 878.169189,530.591248 879.211853,539.453918 
	C880.154663,547.468018 881.107300,555.481323 882.136414,563.484619 
	C883.788391,576.332703 885.540771,589.167969 887.184998,602.017029 
	C888.230103,610.184387 889.173767,618.364929 890.132263,626.543213 
	C892.166992,643.905029 894.150696,661.272888 896.245544,678.627441 
	C896.497620,680.716064 897.307678,682.737305 897.875488,685.234436 
z"/>
<path fill="#FFFEFE" opacity="1.000000" stroke="none" 
	d="
M1568.800293,239.789474 
	C1577.188599,236.495605 1585.096680,233.035492 1593.193604,230.096054 
	C1597.732910,228.448151 1602.567871,227.587646 1607.299438,226.501312 
	C1626.624756,222.064255 1646.273071,220.405685 1665.944702,222.188522 
	C1682.714844,223.708328 1698.605103,228.263367 1713.102905,237.974319 
	C1727.241455,247.444595 1737.405640,260.110870 1746.436401,273.899536 
	C1749.904907,279.195404 1751.714355,285.633270 1753.937134,291.676758 
	C1757.360229,300.983673 1760.792480,310.308258 1763.626221,319.802856 
	C1765.307861,325.437469 1766.085815,331.381134 1766.861816,337.239960 
	C1770.555908,365.132599 1771.862427,393.142883 1770.092407,421.237244 
	C1769.313354,433.602234 1768.514160,446.017517 1766.662109,458.249207 
	C1764.731079,471.004364 1762.048096,483.706573 1758.719849,496.171875 
	C1755.517944,508.164062 1751.510254,519.992676 1747.055298,531.585266 
	C1741.848755,545.133484 1734.516846,557.565613 1726.159546,569.535645 
	C1718.106201,581.070435 1708.271851,590.665527 1696.682495,598.023315 
	C1684.980835,605.452332 1672.198486,610.650574 1657.662720,611.032043 
	C1640.970581,611.470032 1625.546875,608.902832 1610.703491,600.524597 
	C1600.599365,594.821472 1591.343018,588.310669 1583.672607,579.933716 
	C1574.403320,569.810791 1565.939819,558.914246 1557.610474,547.984619 
	C1554.354858,543.712646 1552.427368,538.432434 1549.865601,533.627136 
	C1544.713745,523.963440 1539.168091,514.487000 1534.496338,504.597168 
	C1530.798218,496.768341 1527.930908,488.517242 1525.111572,480.310394 
	C1521.343628,469.342010 1517.708618,458.312134 1514.528320,447.162720 
	C1512.120605,438.721558 1509.978149,430.132935 1508.667114,421.466278 
	C1506.281128,405.693878 1503.956177,389.860229 1502.833984,373.965393 
	C1501.969604,361.722382 1502.281860,349.282654 1503.390991,337.050110 
	C1504.271484,327.337189 1506.112793,317.429626 1509.419922,308.293396 
	C1513.129028,298.046204 1518.025879,287.930084 1524.140625,278.936249 
	C1530.313354,269.856812 1537.985596,261.523895 1546.179199,254.178192 
	C1552.660645,248.367249 1560.925903,244.545822 1568.800293,239.789474 
M1673.141968,320.303772 
	C1667.590210,315.308838 1661.346680,311.033661 1653.935059,310.229034 
	C1639.423950,308.653717 1625.265137,310.592560 1611.475464,315.899872 
	C1603.012573,319.156982 1595.813477,323.904419 1591.057617,331.372101 
	C1585.466553,340.151306 1582.456299,350.116089 1582.932373,360.641510 
	C1583.468628,372.501160 1584.658813,384.331696 1585.598877,396.172150 
	C1585.782959,398.490784 1585.883179,400.855988 1586.433838,403.098572 
	C1588.558350,411.747894 1590.843872,420.357727 1593.081299,428.979187 
	C1594.474487,434.347534 1595.445190,439.877014 1597.384766,445.041534 
	C1601.667114,456.444244 1606.255859,467.742401 1611.088013,478.924011 
	C1613.866821,485.354218 1616.707397,491.936920 1620.708740,497.613220 
	C1625.527466,504.449127 1631.642578,510.365753 1637.130371,516.737244 
	C1641.369995,521.659729 1647.831421,522.643066 1653.032227,522.348389 
	C1663.026855,521.782166 1668.822266,513.996277 1673.047363,505.592316 
	C1679.686523,492.386597 1684.134766,478.309570 1686.713867,463.847595 
	C1688.913452,451.513885 1690.301147,438.922058 1690.684326,426.402649 
	C1691.367920,404.061371 1691.823730,381.733124 1688.258667,359.421326 
	C1686.007812,345.335266 1681.962891,332.431854 1673.141968,320.303772 
z"/>
<path fill="#FFFEFD" opacity="1.000000" stroke="none" 
	d="
M1463.568115,439.571716 
	C1458.967529,448.774292 1453.463501,456.867798 1446.781372,464.233490 
	C1442.425903,469.034454 1438.425537,474.179840 1434.581299,479.403076 
	C1433.830933,480.422729 1433.934937,482.875702 1434.654175,484.049103 
	C1442.412109,496.707428 1450.304443,509.285187 1458.297729,521.796997 
	C1465.233154,532.652832 1472.049438,543.604309 1479.466919,554.126770 
	C1486.219727,563.706543 1493.627930,572.831421 1500.898682,582.037109 
	C1508.086304,591.137634 1515.379150,600.158508 1522.793091,609.075195 
	C1526.431396,613.451050 1530.545898,617.429871 1534.210815,621.785339 
	C1534.937378,622.648804 1535.250610,624.956055 1534.649780,625.677307 
	C1524.755249,637.554749 1514.643433,649.250732 1504.664307,661.058350 
	C1497.154663,669.943970 1489.713257,678.888611 1482.353638,687.898621 
	C1480.312988,690.396790 1478.285889,690.657837 1476.285767,688.322815 
	C1467.793335,678.409241 1459.307129,668.486877 1451.023804,658.399109 
	C1443.814453,649.619019 1436.711426,640.739685 1429.890015,631.657410 
	C1425.968262,626.435913 1422.764526,620.680420 1419.118652,615.244934 
	C1415.673462,610.108643 1412.026978,605.107666 1408.551636,599.990967 
	C1403.999634,593.289062 1399.329346,586.655396 1395.066772,579.771484 
	C1387.296875,567.223267 1379.649536,554.593872 1372.232422,541.834717 
	C1368.601318,535.588318 1365.691528,528.926941 1362.288086,522.542542 
	C1359.450073,517.218689 1356.247803,512.088684 1353.422119,506.758667 
	C1349.002808,498.422516 1344.695679,490.023926 1340.565552,481.542328 
	C1340.182129,480.754883 1341.158936,478.982483 1341.931030,478.004395 
	C1350.331787,467.362610 1359.104248,457.001343 1367.194824,446.131470 
	C1374.386597,436.469421 1381.702393,426.726105 1387.409546,416.177917 
	C1394.136230,403.745605 1397.557739,390.005493 1394.862915,375.679291 
	C1393.376709,367.778168 1389.253662,361.402618 1380.522705,361.944885 
	C1370.012207,362.597687 1359.520142,363.615173 1349.041016,364.679688 
	C1343.664551,365.225830 1338.297974,366.032043 1332.990112,367.050476 
	C1324.226318,368.731934 1315.513672,370.680725 1306.779419,372.515869 
	C1306.453369,372.584320 1306.127075,372.655548 1305.797729,372.703156 
	C1293.433716,374.489929 1281.034302,376.065125 1268.716919,378.129120 
	C1259.922974,379.602692 1251.254517,381.811371 1242.496338,383.519287 
	C1239.953491,384.015106 1237.294434,383.915405 1234.023315,384.132965 
	C1236.535034,354.985809 1238.998535,326.398804 1241.502686,297.339630 
	C1246.023926,296.546722 1250.799194,295.716492 1255.571899,294.870758 
	C1267.950439,292.677094 1280.309326,290.364624 1292.711182,288.311737 
	C1304.061279,286.432922 1315.486206,284.999298 1326.824585,283.056519 
	C1336.425171,281.411499 1345.945435,279.300354 1355.508789,277.433441 
	C1359.339355,276.685669 1363.195312,276.069244 1367.030151,275.341949 
	C1384.570679,272.015289 1402.284668,270.522003 1419.931519,273.383057 
	C1426.488403,274.446106 1432.761353,278.022461 1438.844849,281.086029 
	C1451.762207,287.591187 1460.893799,298.262543 1467.570312,310.655548 
	C1471.802124,318.510986 1474.216309,327.384521 1477.100220,335.918243 
	C1481.928345,350.204651 1482.975830,365.078491 1481.818481,379.919342 
	C1480.736572,393.794800 1478.833496,407.656982 1472.190918,420.371429 
	C1469.005371,426.468628 1466.587036,432.966644 1463.568115,439.571716 
z"/>
<path fill="#FFFEFD" opacity="1.000000" stroke="none" 
	d="
M1115.121216,409.230042 
	C1116.685791,420.460754 1118.400513,431.673401 1119.757568,442.929108 
	C1120.549438,449.497681 1120.768921,456.135223 1121.306641,463.583527 
	C1128.505981,462.531097 1135.304565,461.690796 1142.041870,460.502350 
	C1147.152222,459.600861 1152.140869,457.983978 1157.260254,457.162872 
	C1169.226807,455.243622 1181.277344,453.833191 1193.220703,451.789001 
	C1201.845459,450.312866 1210.343994,448.108337 1218.920410,446.332214 
	C1220.316650,446.043030 1221.824219,446.291534 1223.848511,446.291534 
	C1221.400635,474.648315 1218.971924,502.783081 1216.408569,532.477966 
	C1188.915405,537.281616 1160.731567,542.205994 1131.989136,547.227905 
	C1132.795532,553.765686 1133.649048,560.198914 1134.371338,566.646912 
	C1135.661133,578.161804 1136.855835,589.687378 1138.120361,601.205200 
	C1139.108887,610.209778 1140.108154,619.213501 1141.167236,628.210022 
	C1142.089966,636.049805 1142.755737,643.941711 1144.156250,651.698425 
	C1146.340210,663.794067 1148.354858,675.949585 1153.046143,687.476685 
	C1153.665771,688.999207 1152.206299,691.950317 1150.888672,693.573120 
	C1146.322144,699.197327 1141.482544,704.609131 1136.579712,709.948486 
	C1130.377197,716.703186 1124.000366,723.297913 1117.718140,729.979736 
	C1109.614502,738.598755 1101.537231,747.242615 1093.421631,755.850342 
	C1092.822632,756.485779 1092.005981,756.916199 1090.711060,757.867615 
	C1088.054688,751.132324 1085.261719,744.996460 1083.204346,738.623047 
	C1079.687256,727.728210 1076.564575,716.703430 1073.437622,705.687439 
	C1072.810791,703.478821 1072.932373,701.062439 1072.662109,698.747253 
	C1071.399902,687.935608 1070.117554,677.126343 1068.849365,666.315369 
	C1066.850830,649.278198 1064.866211,632.239258 1062.859497,615.203064 
	C1061.877808,606.868286 1060.909424,598.531494 1059.845581,590.206970 
	C1058.220215,577.489319 1056.465088,564.788086 1054.864868,552.067322 
	C1053.752441,543.224121 1052.896729,534.348389 1051.766724,525.507629 
	C1050.096069,512.435852 1048.152100,499.398041 1046.570801,486.316010 
	C1045.164062,474.679016 1044.204834,462.988403 1042.843628,451.345337 
	C1041.260010,437.798706 1039.452759,424.278229 1037.744995,410.746094 
	C1036.819092,403.408875 1035.964722,396.061890 1034.958740,388.735687 
	C1033.460693,377.826569 1031.679321,366.953369 1030.362305,356.023468 
	C1029.509766,348.948059 1029.270264,341.798767 1028.694458,333.828796 
	C1040.336304,332.174377 1051.677612,330.780670 1062.936279,328.893738 
	C1071.937134,327.385193 1080.835083,325.266571 1089.782959,323.439331 
	C1093.447021,322.691132 1097.101685,321.861206 1100.796387,321.306854 
	C1108.433472,320.161041 1116.128540,319.372955 1123.737549,318.074219 
	C1133.685913,316.376312 1143.573853,314.326233 1153.488037,312.428406 
	C1157.331055,311.692780 1161.159912,310.869568 1165.020508,310.242279 
	C1174.393921,308.719238 1183.906494,307.813538 1193.120850,305.634705 
	C1199.282959,304.177582 1201.183838,307.150970 1202.711792,311.771362 
	C1206.818115,324.187012 1210.804810,336.643494 1215.042236,349.014130 
	C1219.096313,360.849945 1223.406250,372.598145 1227.829346,385.018158 
	C1219.816528,386.375153 1211.663940,387.598389 1203.578613,389.168396 
	C1195.131348,390.808685 1186.784546,392.973694 1178.327026,394.551453 
	C1171.367920,395.849701 1164.283569,396.465515 1157.303711,397.667603 
	C1146.373169,399.550018 1135.485352,401.679321 1124.574951,403.679657 
	C1123.597046,403.858948 1122.586426,403.859833 1120.923950,403.942413 
	C1114.861938,403.704163 1114.114868,404.473572 1115.121216,409.230042 
z"/>
<path fill="#FFFEFE" opacity="1.000000" stroke="none" 
	d="
M535.407227,808.137329 
	C528.566956,809.433777 522.139343,810.580200 515.772217,811.998291 
	C507.520416,813.836243 499.325592,815.928772 491.087311,817.829529 
	C488.557831,818.413086 485.958862,819.137634 483.404358,819.091858 
	C473.953156,818.922241 465.174500,821.526489 456.323151,824.459778 
	C452.688690,825.664185 448.395599,824.742310 444.444489,825.174744 
	C441.425232,825.505249 438.469452,826.431030 435.493011,827.124390 
	C434.855164,827.272949 434.266357,827.672363 433.626892,827.767517 
	C428.485199,828.532898 423.340271,829.819519 418.189636,829.850891 
	C410.905457,829.895325 404.139832,831.320312 397.140656,833.363342 
	C389.373688,835.630432 380.929779,835.461060 372.886536,836.931763 
	C364.634033,838.440735 356.511230,840.657104 348.326508,842.541504 
	C347.524109,842.726257 346.682434,842.733337 345.864655,842.859558 
	C340.898651,843.626282 335.859344,844.086731 330.984100,845.239746 
	C318.806641,848.119812 306.621277,850.549683 293.995636,850.091187 
	C291.731323,850.008911 289.438843,851.257019 287.128967,851.748230 
	C283.318298,852.558533 279.489716,853.291260 275.653564,853.971497 
	C274.517578,854.172974 272.871124,853.606323 272.238525,854.209534 
	C265.949768,860.206238 257.718567,857.014709 250.620789,858.991089 
	C238.824188,862.275818 225.856323,859.569702 214.644882,866.134460 
	C213.270248,866.939453 210.901779,865.948181 208.996155,865.971924 
	C206.895294,865.998169 204.772980,866.081909 202.701904,866.407227 
	C194.589020,867.681519 186.492661,869.061096 178.317429,870.413574 
	C183.116302,854.722412 187.633102,840.026062 192.102371,825.315247 
	C195.228683,815.024780 198.107330,804.655090 201.434875,794.430908 
	C204.405441,785.303406 207.904404,776.349060 211.037704,767.272644 
	C212.289169,763.647461 213.092697,759.869751 214.270676,756.216431 
	C215.346558,752.879822 217.196869,750.762817 221.310333,750.868896 
	C224.054214,750.939575 226.818680,749.630554 229.597549,749.052490 
	C234.692947,747.992615 239.823257,747.096008 244.905243,745.977844 
	C248.349243,745.220032 251.508575,744.078125 255.251144,745.770813 
	C257.004639,746.563904 259.830933,745.036560 262.156982,744.500183 
	C265.538483,743.720459 268.928070,742.962402 272.275940,742.053955 
	C275.984985,741.047607 279.652588,739.887695 283.332733,738.776367 
	C283.632477,738.685791 283.875549,738.338806 284.168274,738.303406 
	C290.714325,737.510620 297.255493,736.199707 303.814148,736.102356 
	C313.537384,735.958069 322.753296,734.006409 332.091400,731.504761 
	C335.149017,730.685547 338.810425,726.682983 343.174835,730.631409 
	C344.376465,731.718567 348.524445,729.536011 351.325043,728.872803 
	C353.969086,728.246643 356.605225,727.575806 359.269043,727.046387 
	C367.580902,725.394043 375.904083,723.798523 384.223663,722.185120 
	C384.549957,722.121887 384.884155,722.098328 385.215118,722.060425 
	C392.103790,721.272339 399.002167,720.558472 405.875427,719.653564 
	C408.004456,719.373230 410.060394,718.555359 412.158447,718.017395 
	C414.847504,717.328003 417.514435,716.483521 420.245087,716.037598 
	C428.964447,714.613892 437.710083,713.351501 446.442383,712.006165 
	C447.911133,711.779907 449.353485,711.364258 450.826141,711.184937 
	C457.237915,710.404541 463.700836,709.938110 470.057434,708.846558 
	C474.598297,708.066772 478.994537,706.455444 483.468262,705.263733 
	C484.255493,705.053955 485.114685,705.132080 485.926666,704.994629 
	C492.917633,703.810486 499.884277,702.459473 506.901184,701.459778 
	C511.999817,700.733276 517.168213,700.507751 522.296265,699.970154 
	C524.497864,699.739319 526.676025,699.283752 529.467346,698.833008 
	C550.015076,731.483826 570.851685,764.593750 592.500793,798.994690 
	C572.777466,802.167419 554.312073,805.137756 535.407227,808.137329 
z"/>
<path fill="#FFFEFD" opacity="1.000000" stroke="none" 
	d="
M939.202087,639.614868 
	C937.725769,624.002502 936.331604,608.834961 934.778442,593.683777 
	C933.953674,585.638062 932.834045,577.622864 931.880859,569.589905 
	C929.845459,552.436707 927.887451,535.274109 925.791260,518.128357 
	C924.216919,505.251801 922.452698,492.398499 920.818665,479.529053 
	C919.803833,471.535919 918.868774,463.532654 917.908081,455.532715 
	C916.906189,447.190552 915.910034,438.847656 914.923523,430.503693 
	C913.898987,421.838287 912.883728,413.171783 911.873718,404.504730 
	C910.844299,395.671814 909.887329,386.829926 908.782166,378.006561 
	C908.027832,371.983765 907.132507,365.976746 906.188232,359.980316 
	C905.548584,355.918304 907.198303,354.516266 911.242004,354.025909 
	C923.623840,352.524506 935.984131,350.770020 948.287354,348.720917 
	C957.927979,347.115326 967.471313,344.925720 977.057617,342.994141 
	C981.384644,342.122284 982.668213,343.836334 982.997986,348.259125 
	C984.056396,362.452362 985.667664,376.605713 987.154175,390.765198 
	C988.065002,399.441071 989.119263,408.102142 990.143738,416.765778 
	C991.107788,424.917725 992.082458,433.068695 993.114136,441.212311 
	C994.788025,454.424744 996.540161,467.627258 998.205078,480.840790 
	C999.235596,489.019440 1000.169006,497.210388 1001.140503,505.396454 
	C1003.138855,522.234680 1005.128113,539.074036 1007.131958,555.911560 
	C1008.123962,564.247070 1009.163574,572.577026 1010.139221,580.914429 
	C1011.192688,589.917358 1012.171814,598.929016 1013.229736,607.931335 
	C1014.131348,615.603699 1015.067261,623.272339 1016.044006,630.935486 
	C1017.729370,644.158630 1019.467102,657.375122 1021.165100,670.596680 
	C1022.130554,678.114319 1023.007690,685.643555 1024.023682,693.154175 
	C1024.833618,699.140869 1025.793579,705.107178 1026.766724,711.616394 
	C1000.998840,716.335693 975.884338,720.935303 950.360718,725.609863 
	C950.066223,723.097534 949.883545,721.658325 949.730652,720.215881 
	C948.442444,708.066101 947.287170,695.900513 945.840454,683.769653 
	C944.304749,670.892578 942.527893,658.043762 940.763733,645.195251 
	C940.523804,643.447876 939.746643,641.774231 939.202087,639.614868 
z"/>
<path fill="#FFFEFD" opacity="1.000000" stroke="none" 
	d="
M253.983597,627.986755 
	C256.569611,620.528259 259.221527,613.091736 261.714325,605.602234 
	C262.995575,601.752808 263.668060,597.670105 265.251465,593.964478 
	C266.083649,592.016907 268.033966,589.705994 269.916107,589.207336 
	C275.362000,587.764099 281.249603,585.743347 286.554657,586.571228 
	C293.459137,587.648682 298.969849,583.834595 305.485809,583.599487 
	C313.541016,583.309021 321.476288,580.040039 329.498291,578.211182 
	C331.248749,577.812073 333.157990,578.171448 334.974548,577.987915 
	C339.067932,577.574341 343.414429,579.075867 347.092316,575.418579 
	C348.263916,574.253601 351.304321,574.477539 353.375000,574.800537 
	C359.209351,575.710693 364.286255,573.672302 369.556335,571.715149 
	C372.054779,570.787354 375.281403,571.825500 377.784424,570.903870 
	C388.639862,566.906677 400.111267,567.667419 411.255524,566.004272 
	C421.260925,564.510986 431.178619,562.429932 442.181091,560.416748 
	C446.824615,567.863831 451.814880,575.996643 456.940552,584.043091 
	C460.519714,589.661743 464.363464,595.111877 467.944183,600.729553 
	C471.698578,606.619690 475.273926,612.623779 478.938873,618.571106 
	C483.131348,625.374573 487.253723,632.222961 491.557770,638.955200 
	C496.339661,646.434814 501.320312,653.787048 506.153168,661.234436 
	C507.628662,663.508118 506.498657,664.526855 504.150085,664.826111 
	C495.965912,665.868835 487.740845,666.680115 479.615387,668.070496 
	C470.516693,669.627441 461.514984,671.746155 452.459930,673.565125 
	C448.470490,674.366516 444.470337,675.145813 440.445618,675.733887 
	C432.625671,676.876526 424.730835,677.583862 416.967743,679.017212 
	C408.862976,680.513489 400.876648,682.651428 392.839508,684.513184 
	C392.522217,684.586670 392.221588,684.745117 391.902374,684.795715 
	C381.542389,686.437683 371.173462,688.025330 360.824524,689.734070 
	C357.771057,690.238159 354.773438,691.080566 350.942078,691.860840 
	C343.126343,692.754150 336.118713,693.554199 329.111206,694.355408 
	C328.616669,694.411987 328.114075,694.436157 327.630310,694.543274 
	C319.100433,696.432434 310.572845,698.332031 301.605957,700.148193 
	C295.888550,701.207886 290.627625,702.441956 285.322723,703.443298 
	C283.222046,703.839783 280.940552,704.136658 278.890625,703.728760 
	C276.250092,703.203369 273.716339,701.638550 271.402527,704.894287 
	C268.996277,705.305237 266.984619,705.721985 264.972992,706.138733 
	C260.369995,706.974182 255.778549,707.881226 251.161285,708.628540 
	C243.987976,709.789612 236.797073,710.841919 227.954880,712.193970 
	C229.120682,708.134583 229.860413,705.527161 230.618698,702.925171 
	C232.074600,697.929260 233.476532,692.916504 235.019638,687.947571 
	C236.887375,681.933289 238.971115,675.985046 240.778442,669.953369 
	C241.746033,666.724182 242.329361,663.379944 243.489685,659.607849 
	C246.570602,650.403931 249.247910,641.679749 251.925232,632.955566 
	C251.925232,632.955566 251.999161,632.943359 252.246643,632.729553 
	C252.990616,631.006104 253.487106,629.496399 253.983597,627.986755 
z"/>
<path fill="#FFFEFD" opacity="1.000000" stroke="none" 
	d="
M1349.091797,575.579895 
	C1349.741577,579.379333 1350.587769,582.710266 1350.952515,586.093079 
	C1352.458496,600.066772 1353.713989,614.067932 1355.269531,628.035767 
	C1356.269409,637.011963 1357.631714,645.947754 1358.886963,655.315491 
	C1354.189209,655.894775 1350.592651,656.175415 1347.058105,656.804749 
	C1336.643555,658.658936 1326.267334,660.728333 1315.850464,662.568481 
	C1305.210938,664.447998 1294.541138,666.155823 1283.248291,668.045288 
	C1282.437500,663.511780 1281.466187,659.425476 1281.010132,655.282349 
	C1279.525757,641.798828 1278.284058,628.288696 1276.841309,614.800415 
	C1275.982300,606.770264 1274.899170,598.764221 1273.955444,590.742859 
	C1271.895020,573.232239 1269.863770,555.718323 1267.812012,538.206726 
	C1266.834717,529.865906 1265.903076,521.518982 1264.834595,513.189758 
	C1263.226562,500.654175 1261.490723,488.135040 1259.859863,475.602325 
	C1258.859985,467.918976 1258.028809,460.213287 1256.988892,452.535645 
	C1255.514282,441.649567 1253.821655,430.792480 1252.414307,419.898193 
	C1251.754761,414.792755 1251.607910,409.623138 1251.108765,404.494263 
	C1250.779907,401.114929 1250.237183,397.756439 1249.629883,393.181335 
	C1274.048706,386.616791 1299.867188,384.787537 1325.510010,379.480499 
	C1326.394653,385.203003 1327.381958,390.325592 1327.948120,395.494293 
	C1329.459595,409.290680 1330.739502,423.112274 1332.211792,436.913177 
	C1333.066895,444.927765 1334.076904,452.926636 1335.085571,460.923950 
	C1336.772095,474.297272 1338.539185,487.660431 1340.222534,501.034119 
	C1341.251831,509.212708 1342.190186,517.402710 1343.165771,525.588013 
	C1345.134155,542.103577 1347.099976,558.619507 1349.091797,575.579895 
z"/>
<path fill="#FFFEFD" opacity="1.000000" stroke="none" 
	d="
M375.194275,533.269409 
	C361.109589,535.745972 347.406494,538.040894 333.689026,540.246399 
	C327.206055,541.288757 320.656158,541.950195 314.207367,543.161194 
	C305.890900,544.722900 297.664886,546.762329 289.359009,548.386963 
	C286.306915,548.984009 283.138275,548.985168 279.329529,549.318970 
	C280.758972,543.636841 281.861847,538.505554 283.367554,533.495361 
	C284.659454,529.196655 286.593231,525.092651 287.924896,520.803711 
	C291.098022,510.584106 294.026306,500.288788 297.158234,490.056091 
	C301.049286,477.343048 305.013672,464.652222 309.005219,451.970276 
	C313.612701,437.331238 318.302307,422.718048 322.920685,408.082458 
	C325.339478,400.417297 327.682037,392.728088 331.366913,384.294128 
	C360.760986,430.935242 390.155060,477.576355 420.058533,525.025757 
	C416.822113,525.761841 414.074646,526.499695 411.284576,527.000122 
	C402.607483,528.556641 393.916351,530.035339 385.226196,531.518188 
	C382.013794,532.066345 378.789093,532.542236 375.194275,533.269409 
z"/>
<path fill="#FF932E" opacity="1.000000" stroke="none" 
	d="
M302.044800,700.229431 
	C310.572845,698.332031 319.100433,696.432434 327.630310,694.543274 
	C328.114075,694.436157 328.616669,694.411987 329.111206,694.355408 
	C336.118713,693.554199 343.126343,692.754150 350.581055,692.005127 
	C347.586639,693.380371 344.220367,694.972412 340.685669,695.964355 
	C335.587372,697.395142 330.368286,698.396790 325.196869,699.564331 
	C324.397949,699.744690 323.552185,700.034790 322.772308,699.933472 
	C314.140717,698.812622 307.217224,703.059692 300.254028,707.089478 
	C289.201660,713.485840 277.876404,713.793396 266.296875,708.776428 
	C265.712463,708.523193 265.446838,707.534180 265.002869,706.513245 
	C266.984619,705.721985 268.996277,705.305237 271.822235,704.934692 
	C281.909912,708.939880 290.763641,706.942566 299.412018,702.952454 
	C300.480865,702.459290 301.176331,701.156860 302.044800,700.229431 
z"/>
<path fill="#FF9133" opacity="1.000000" stroke="none" 
	d="
M251.549835,632.985596 
	C249.247910,641.679749 246.570602,650.403931 243.502563,659.180420 
	C242.540436,649.903015 246.267853,641.676697 249.800308,633.411499 
	C249.918732,633.134399 250.701401,633.141174 251.549835,632.985596 
z"/>
<path fill="#705236" opacity="1.000000" stroke="none" 
	d="
M1115.481934,409.192780 
	C1114.114868,404.473572 1114.861938,403.704163 1120.493896,404.017059 
	C1119.101440,405.780426 1117.472046,407.467957 1115.481934,409.192780 
z"/>
<path fill="#FF9133" opacity="1.000000" stroke="none" 
	d="
M253.613556,628.051086 
	C253.487106,629.496399 252.990616,631.006104 252.214676,632.710083 
	C252.371323,631.308044 252.807404,629.711731 253.613556,628.051086 
z"/>
<path fill="#FF8C01" opacity="1.000000" stroke="none" 
	d="
M1673.345947,320.622162 
	C1681.962891,332.431854 1686.007812,345.335266 1688.258667,359.421326 
	C1691.823730,381.733124 1691.367920,404.061371 1690.684326,426.402649 
	C1690.301147,438.922058 1688.913452,451.513885 1686.713867,463.847595 
	C1684.134766,478.309570 1679.686523,492.386597 1673.047363,505.592316 
	C1668.822266,513.996277 1663.026855,521.782166 1653.032227,522.348389 
	C1647.831421,522.643066 1641.369995,521.659729 1637.130371,516.737244 
	C1631.642578,510.365753 1625.527466,504.449127 1620.708740,497.613220 
	C1616.707397,491.936920 1613.866821,485.354218 1611.088013,478.924011 
	C1606.255859,467.742401 1601.667114,456.444244 1597.384766,445.041534 
	C1595.445190,439.877014 1594.474487,434.347534 1593.081299,428.979187 
	C1590.843872,420.357727 1588.558350,411.747894 1586.433838,403.098572 
	C1585.883179,400.855988 1585.782959,398.490784 1585.598877,396.172150 
	C1584.658813,384.331696 1583.468628,372.501160 1582.932373,360.641510 
	C1582.456299,350.116089 1585.466553,340.151306 1591.057617,331.372101 
	C1595.813477,323.904419 1603.012573,319.156982 1611.475464,315.899872 
	C1625.265137,310.592560 1639.423950,308.653717 1653.935059,310.229034 
	C1661.346680,311.033661 1667.590210,315.308838 1673.345947,320.622162 
z"/>
<path fill="#FF9A4E" opacity="1.000000" stroke="none" 
	d="
M301.605957,700.148193 
	C301.176331,701.156860 300.480865,702.459290 299.412018,702.952454 
	C290.763641,706.942566 281.909912,708.939880 272.216858,704.940430 
	C273.716339,701.638550 276.250092,703.203369 278.890625,703.728760 
	C280.940552,704.136658 283.222046,703.839783 285.322723,703.443298 
	C290.627625,702.441956 295.888550,701.207886 301.605957,700.148193 
z"/>
</svg>