<?xml version="1.0" encoding="utf-8"?>
<!-- Generator: Adobe Illustrator 25.2.1, SVG Export Plug-In . SVG Version: 6.00 Build 0)  -->
<svg version="1.1" id="Livello_1" xmlns="http://www.w3.org/2000/svg" xmlns:xlink="http://www.w3.org/1999/xlink" x="0px" y="0px"
	 viewBox="0 0 654.6 567.1" style="enable-background:new 0 0 654.6 567.1;" xml:space="preserve">
<style type="text/css">
	.st0{fill-rule:evenodd;clip-rule:evenodd;fill:#dd042b;}
	.st1{fill:#FFFFFF;}
	.st2{fill:#DD052B;}
</style>
<rect class="st0" width="566.9" height="567.1"/>
<g>
	<path class="st1" d="M208.3,340.8c-0.1-0.3-0.1-0.4-0.1-0.6l-0.9-19.9c-0.1-9.6-2.2-16.9-5.9-21.9c-3.7-4.9-9.7-8.2-17.7-9.9
		c7.9-3.3,13.8-7.9,17.7-13.7c3.9-5.8,5.8-13.1,5.8-21.7c0-14.7-4.6-25.2-14-31.7c-9.5-6.3-25.1-9.7-47.1-9.7H143H76.1v143.3h46.4
		v-49.4h20h0.4c7.2,0,12.1,1.6,15.1,4.5c2.9,3,4.5,8.2,4.5,15.7v14.3c0,1.4,0.1,3.5,0.6,6c0.4,2.4,1.2,5.5,2,8.9h46.5h0.9v-5.3
		c-0.3,0-0.6-0.1-0.9-0.1C209.6,348.9,208.5,345.8,208.3,340.8z M159.1,270.9c-2.9,2-7.9,3-15.3,3H143h-20.2V246h19.9h0.3
		c7.9,0,13.4,1,16.1,3c2.7,2.2,4.2,5.8,4.2,11.1C163.3,265.2,161.8,268.8,159.1,270.9z"/>
	<polygon class="st1" points="447.3,211.7 447.3,260.4 407,260.4 407,211.7 363.5,211.7 363.5,355.1 407,355.1 407,299.6 
		447.3,299.6 447.3,355.1 490.8,355.1 490.8,211.7 	"/>
	<path class="st1" d="M304.1,317c-4.3,4-9.9,6-17.1,6c-9.5,0-16.7-3.3-21.5-9.9c-4.9-6.8-7.3-16.6-7.3-29.7
		c0-13.3,2.3-23.2,6.9-29.8c4.6-6.5,11.4-9.8,20.6-9.8c7.5,0,13.3,1.9,17.4,5.6c4.2,3.7,6.5,9.2,7.2,16.6h44.8
		c-1.4-18.6-8.2-33-20.3-42.9C322.7,213,306.2,208,285.1,208c-22.9,0-41,6.8-54.3,20.3c-10.7,10.8-17,24.9-19.2,42.1
		c-0.4,4.2-0.7,8.6-0.7,13.1c0,4.6,0.3,8.9,0.7,13.1c2.2,17.4,8.6,31.4,19.4,42.2c13.4,13.5,31.7,20.3,55,20.3
		c20.7,0,37.3-5.3,49.5-15.7c12.2-10.4,18.9-25.1,20.3-43.9h-44.4C310.9,307.1,308.3,312.8,304.1,317z"/>
</g>
<path class="st2" d="M627.1,38.3c0.9-0.2,1.8-0.6,2.6-1.1c1.2-0.7,2.2-1.6,3-2.7c0.8-1.1,1.4-2.3,1.9-3.6c0.5-1.3,0.7-2.7,0.7-4.2
	c0-1.5-0.3-3-0.9-4.5c-0.6-1.5-1.4-2.8-2.4-3.9c-1-1.1-2.2-2.1-3.6-2.8c-1.4-0.7-3-1.1-4.7-1.1h-16.2V53h4.9V39h9.4l8.9,14h5.6
	L627.1,38.3z M612.5,19.1h11.1c2,0,3.7,0.7,5,2.1c1.3,1.4,2,3.2,2,5.5c0,2.1-0.6,4-1.7,5.5c-1.1,1.5-2.7,2.2-4.9,2.2h-11.4V19.1z"/>
<path class="st2" d="M652,20.5c-1.7-4.1-4.1-7.8-7.1-10.8c-3-3-6.7-5.4-10.8-7.1c-4.1-1.7-8.7-2.6-13.6-2.6c-4.8,0-9.3,0.9-13.5,2.6
	c-4.1,1.7-7.8,4.1-10.8,7.1c-3,3-5.4,6.6-7.1,10.8c-1.7,4.1-2.6,8.7-2.6,13.5c0,4.9,0.9,9.4,2.6,13.6c1.7,4.1,4.1,7.8,7.1,10.8
	c3,3,6.7,5.4,10.8,7.2c4.1,1.7,8.7,2.6,13.5,2.6c4.9,0,9.4-0.9,13.6-2.6c4.1-1.7,7.8-4.1,10.8-7.2c3-3,5.4-6.7,7.1-10.8
	c1.7-4.1,2.6-8.7,2.6-13.6C654.6,29.1,653.7,24.6,652,20.5z M620.5,63.8c-4.2,0-8.2-0.8-11.8-2.3c-3.6-1.5-6.8-3.6-9.4-6.2
	c-2.6-2.6-4.7-5.8-6.1-9.4c-1.5-3.6-2.2-7.6-2.2-11.9c0-4.2,0.7-8.2,2.2-11.8c1.5-3.6,3.5-6.7,6.1-9.4c2.6-2.6,5.8-4.7,9.4-6.2
	c3.6-1.5,7.6-2.3,11.8-2.3c4.3,0,8.3,0.8,11.9,2.3c3.6,1.5,6.8,3.6,9.4,6.3c2.6,2.6,4.7,5.8,6.2,9.4c1.5,3.6,2.2,7.5,2.2,11.8
	c0,4.5-0.8,8.6-2.3,12.2c-1.5,3.6-3.6,6.8-6.3,9.4c-2.6,2.6-5.8,4.6-9.4,6.1C628.6,63,624.7,63.8,620.5,63.8z"/>
</svg>
